# Blender 5.0.1
# www.blender.org
mtllib tour_eiffel.mtl
o Object_2
v 10.450000 42.076263 -9.150006
v 9.549999 42.076263 -9.150006
v 10.450000 40.826263 -9.150006
v 9.549999 40.826263 -9.150006
v 9.549999 42.076263 -8.750007
v 9.549999 40.826263 -8.750007
v 10.450000 40.826263 -8.750007
v 10.450000 42.076263 -8.750007
v 8.750000 40.826263 -10.450006
v 8.750000 40.826263 -9.550006
v 9.150000 40.826263 -10.450006
v 9.150000 40.826263 -9.550006
v 12.499999 9.250000 -7.500002
v 12.500006 6.151619 -8.587879
v 12.499957 6.314406 -10.127082
v 12.500000 6.176277 -11.266995
v 9.150000 42.076263 -10.450006
v 8.750000 42.076263 -10.450006
v 9.326137 43.560249 -10.672475
v 13.874136 9.924463 -14.322992
v 13.145573 10.010206 -14.729132
v 13.883116 10.009890 -14.726007
v 4.099999 9.250000 -4.100001
v 4.099999 9.249999 -15.900003
v 4.099999 8.849999 -4.100001
v 4.099999 8.849998 -15.900003
v 8.732872 6.193855 -12.500001
v 7.500000 9.249999 -12.500002
v 10.189416 6.301027 -12.500002
v 7.500000 6.301027 -10.189420
v 9.549999 42.076263 -10.850008
v 10.450000 42.076263 -10.850008
v 9.549999 40.826263 -10.850008
v 10.450000 40.826263 -10.850008
v 4.000000 0.599997 -20.000002
v 4.000000 -0.000003 -20.000002
v 0.000000 0.599997 -20.000002
v 0.000000 -0.000003 -20.000002
v 12.498075 5.789939 -12.500514
v 15.991313 7.302235 -15.100740
v 15.991313 7.302237 -4.899264
v 15.642439 7.106576 -15.100730
v 15.642439 7.106577 -4.899263
v 19.750000 0.599998 -16.271366
v 20.000000 0.599997 -20.000002
v 19.750000 0.599997 -19.750002
v 16.286234 0.602159 -19.748718
v 7.499997 6.143824 -11.446979
v 7.489994 5.795451 -12.509097
v 10.850001 40.826263 -9.550006
v 10.850001 42.076263 -9.550006
v 11.249999 40.826263 -9.550006
v 11.249999 42.076263 -9.550006
v 4.000000 -0.000002 -16.000000
v 4.000000 0.599998 -16.000000
v 7.208909 16.472778 -11.967839
v 7.208909 16.472778 -8.032166
v 7.600303 16.389034 -11.967840
v 7.600303 16.389034 -8.032166
v 11.007173 38.859776 -11.008772
v 12.510986 5.794600 -7.492411
v 11.267128 6.193856 -7.500003
v 11.967836 16.472778 -12.791095
v 8.032163 16.472778 -12.791095
v 11.967837 16.389034 -12.399700
v 8.032163 16.389034 -12.399700
v 11.249999 40.501266 -8.750007
v 5.669296 9.925326 -6.116839
v 5.668942 9.925621 -6.863577
v 5.272645 10.009949 -6.115555
v 5.273158 10.010641 -6.861412
v 10.450000 40.826263 -11.250006
v 10.450000 42.076263 -11.250006
v 11.446977 6.143824 -12.500005
v 7.000000 18.500002 -7.000003
v 13.000000 18.500002 -7.000003
v 12.994842 17.776403 -7.002601
v 11.494561 40.217590 -8.504950
v 11.500000 40.501266 -8.500007
v 8.530951 40.209202 -8.525900
v 8.500000 40.501266 -8.500007
v 9.398510 37.594051 -10.202209
v 9.393886 37.597164 -9.796413
v 8.993722 37.682358 -9.794135
v 13.138596 10.010641 -5.273160
v 12.484043 9.250686 -5.011506
v 13.885288 10.010069 -5.271836
v 15.000001 9.250000 -5.000002
v 4.899263 7.302235 -15.991316
v 15.100738 7.302235 -15.991316
v 4.899262 7.106576 -15.642442
v 15.100726 7.106576 -15.642442
v 15.999999 0.600000 -4.000000
v 16.271364 0.600000 -3.728637
v 20.000000 0.600000 -4.000000
v 19.744877 0.609088 -3.700262
v 20.000000 0.600000 -0.000000
v 10.850001 42.076263 -10.450006
v 10.850001 40.826263 -10.450006
v 11.249999 40.826263 -10.450006
v 11.249999 40.501266 -11.250006
v 11.249999 42.076263 -10.450006
v 15.999999 -0.000003 -20.000002
v 15.999999 -0.000002 -16.000000
v 15.999999 0.599997 -20.000002
v 15.999999 0.599998 -16.000000
v 12.518052 15.909895 -7.912889
v 12.908631 15.993016 -7.917203
v 12.255693 16.971804 -8.173759
v 12.255693 16.971804 -11.826246
v 12.646989 17.055527 -8.173759
v 12.646990 17.055527 -11.826246
v 9.512166 44.995174 -9.511988
v 10.466196 44.980846 -9.528613
v 9.536504 44.978489 -10.463979
v 10.468302 44.957336 -10.462992
v 20.000000 0.599998 -16.000000
v 20.000000 -0.000002 -16.000000
v 11.492356 19.212317 -8.095768
v 8.516950 19.210997 -8.104628
v 8.505476 19.296869 -7.699347
v 4.000000 -0.000001 -4.000000
v 4.000000 0.600000 -4.000000
v 4.000000 0.000000 -0.000000
v 4.000000 0.600000 -0.000000
v 15.931385 9.238923 -4.068616
v 8.452478 15.994486 -12.912327
v 20.000000 -0.000003 -20.000002
v 8.750000 40.501266 -11.250006
v 8.750000 42.076263 -9.550006
v 11.494525 19.296890 -12.300747
v 12.388780 18.501104 -12.388421
v 8.508924 19.296453 -12.297350
v 7.611540 18.500736 -12.388827
v 12.902988 15.988696 -12.078185
v 12.912320 15.994479 -11.547527
v 11.500000 40.501266 -11.500007
v 11.826243 16.971804 -12.255697
v 8.173757 16.971804 -12.255697
v 11.826243 17.055527 -12.646993
v 8.173757 17.055527 -12.646994
v 8.750000 40.501266 -8.750007
v 8.750000 42.251270 -8.750007
v 0.000000 0.000000 -0.000000
v 0.000000 0.600000 -0.000000
v 12.300656 19.296869 -8.505480
v 12.400001 18.500000 -7.600003
v 12.297345 19.296452 -11.491082
v 8.508987 40.213074 -11.488256
v 8.500000 40.501266 -11.500007
v 8.553013 6.143822 -7.499999
v 7.499955 5.784491 -7.500395
v 10.988578 15.999376 -10.987574
v 10.993497 15.999379 -9.006502
v 9.011406 15.999424 -9.011340
v 7.088870 15.999928 -10.998381
v 7.089056 15.999681 -9.003580
v 11.000000 16.000002 -7.088358
v 9.028643 15.984484 -7.099338
v 10.667812 43.577827 -9.334002
v 6.854426 10.010206 -5.270873
v 6.116906 10.009836 -5.274586
v 11.483051 19.210997 -11.895385
v 8.507647 19.212318 -11.904242
v 7.000000 18.500000 -13.000005
v 14.726594 10.010629 -13.138586
v 14.728379 10.010072 -13.885308
v 14.331042 9.925617 -13.136431
v 14.330689 9.925323 -13.883158
v 15.999999 -0.000001 -4.000000
v 20.000000 -0.000001 -4.000000
v 15.999999 0.000000 0.000000
v 20.000000 0.000000 0.000000
v 14.729012 10.010189 -6.854432
v 14.721620 10.010296 -6.123103
v 10.594857 37.592117 -10.189354
v 11.005797 37.682358 -10.205871
v 1.531890 1.297764 -0.641314
v 3.012797 1.298553 -0.641756
v 1.531890 1.102107 -0.990195
v 2.997657 1.114793 -0.997290
v 7.699258 19.296890 -11.494529
v 7.702900 19.296379 -8.508926
v 8.104625 19.210997 -11.483055
v 8.095764 19.212318 -8.507650
v 18.468109 1.297764 -0.641314
v 18.468109 1.102107 -0.990195
v 13.883155 9.925327 -5.669298
v 13.136427 9.925620 -5.668944
v 9.150000 42.076263 -9.550006
v 7.353011 17.055527 -8.173759
v 7.353011 17.055527 -11.826246
v 7.744306 16.971804 -8.173759
v 7.744306 16.971804 -11.826246
v 14.980456 9.252461 -12.475387
v 15.900001 9.249999 -15.900003
v 14.977668 9.253111 -14.977502
v 12.499349 9.250003 -14.999693
v 7.516145 9.250688 -14.988636
v 5.023126 9.253798 -7.531822
v 5.000000 9.250000 -5.000002
v 7.500651 9.250004 -5.000312
v 9.549999 42.076263 -11.250006
v 9.549999 40.826263 -11.250006
v 19.358688 1.297761 -18.468111
v 19.009800 1.102104 -18.468111
v 7.599999 18.500000 -7.600003
v 13.000000 18.500000 -13.000005
v 12.087115 15.909894 -12.518056
v 11.547461 15.994308 -12.912209
v 0.000000 0.600000 -4.000000
v 0.000000 -0.000001 -4.000000
v 15.900001 8.849998 -15.900003
v 15.999999 0.600000 -0.000000
v 9.000000 16.000000 -12.911650
v 10.971354 15.984481 -12.900673
v 4.899262 7.106578 -4.357572
v 15.100727 7.106578 -4.357572
v 4.899263 7.302237 -4.008688
v 15.100738 7.302237 -4.008688
v 0.000000 0.599998 -16.000000
v 0.250000 0.599998 -16.271366
v 3.728636 0.599998 -16.271366
v 0.000000 -0.000002 -16.000000
v 7.912886 15.909901 -7.481936
v 9.797840 37.594048 -9.398516
v 10.189348 37.592113 -9.405151
v 9.791297 37.683594 -8.990445
v 10.205870 37.682358 -8.993728
v 4.357571 7.106576 -15.100729
v 4.357571 7.106578 -4.899263
v 4.008687 7.302235 -15.100740
v 4.008687 7.302237 -4.899265
v 19.358688 1.297764 -1.531890
v 19.356085 1.302387 -2.997740
v 19.009800 1.102107 -1.531890
v 19.008862 1.103834 -3.012804
v 9.810585 6.301028 -7.500002
v 12.399696 16.389034 -11.967840
v 12.399696 16.389034 -8.032166
v 12.791091 16.472778 -11.967840
v 12.791091 16.472778 -8.032166
v 7.481934 15.909900 -12.087118
v 7.091447 15.993000 -12.082802
v 7.087796 15.994308 -11.547463
v 0.991138 1.103832 -16.987200
v 0.990195 1.102104 -18.468111
v 0.643918 1.302385 -17.002262
v 0.641313 1.297761 -18.468111
v 6.116838 9.925324 -14.330692
v 6.863575 9.925617 -14.331045
v 6.861409 10.010653 -14.726898
v 1.531889 1.102104 -19.009802
v 3.021931 1.102128 -19.009800
v 1.531890 1.297761 -19.358688
v 0.251580 0.602843 -3.718881
v 3.713761 0.602163 -0.251284
v 0.250000 0.600000 -0.250000
v 11.493375 40.218296 -11.493247
v 5.273997 10.009890 -13.883120
v 5.270871 10.010205 -13.145576
v 5.677073 9.924449 -13.874140
v 18.468109 1.297761 -19.358690
v 17.002260 1.302384 -19.356085
v 18.468109 1.102104 -19.009802
v 16.987198 1.103831 -19.008863
v 12.911646 16.000000 -9.000003
v 12.907854 15.998127 -10.990539
v 7.088706 15.994158 -7.913450
v 0.990195 1.102107 -1.531890
v 0.641313 1.297764 -1.531890
v 0.642191 1.299324 -3.014436
v 9.794134 37.682362 -11.005803
v 10.202203 37.594051 -10.601498
v 11.904238 19.212317 -11.492360
v 11.895381 19.210997 -8.516953
v 11.826243 17.055527 -7.353014
v 8.173757 17.055527 -7.353014
v 11.826243 16.971804 -7.744309
v 8.173757 16.971804 -7.744309
v 0.250000 0.599997 -19.750002
v 7.500001 6.193856 -8.732873
v 11.967837 16.389034 -7.600306
v 8.032163 16.389034 -7.600306
v 11.967837 16.472778 -7.208912
v 8.032164 16.472778 -7.208912
v 11.491080 19.296377 -7.702904
v 8.276309 24.518270 -8.275090
v 8.885305 22.670282 -8.080691
v 11.724864 24.518694 -8.276351
v 10.894394 24.919380 -8.301650
v 10.422312 31.520365 -8.775631
v 11.141874 33.159206 -8.856769
v 8.984600 38.985336 -8.986699
v 9.660704 33.415138 -8.859469
v 9.372179 28.241426 -8.570464
v 8.856750 33.158928 -8.858109
v 8.301652 24.919453 -9.105617
v 8.775624 31.520342 -9.577693
v 8.991771 38.872662 -11.008981
v 8.990690 37.683563 -10.208708
v 8.859768 33.422127 -10.338968
v 8.915758 34.875465 -11.084789
v 8.570683 28.244476 -10.627607
v 8.654789 29.541794 -11.344377
v 8.249650 24.407158 -11.750233
v 8.080675 22.669859 -11.114740
v 9.105831 24.921890 -11.698126
v 9.577837 31.523186 -11.224244
v 10.208702 37.683567 -11.009317
v 10.338742 33.427227 -11.139979
v 11.084813 34.874630 -11.084291
v 10.627602 28.244490 -11.429323
v 11.344373 29.541773 -11.345217
v 11.750224 24.407207 -11.750351
v 11.114752 22.669712 -11.919343
v 12.599891 17.288607 -7.401647
v 12.086554 15.994158 -7.088710
v 11.416965 13.455378 -6.395843
v 12.142539 13.190642 -6.313196
v 11.547523 15.994487 -7.087681
v 12.936665 12.911542 -6.229587
v 14.235977 11.460969 -5.763747
v 13.281132 14.600138 -6.718341
v 5.763742 11.460958 -5.764022
v 6.718329 14.600105 -6.718863
v 7.034968 12.834906 -6.201694
v 7.917200 15.993017 -7.091372
v 8.452539 15.994308 -7.087800
v 8.032348 13.943277 -6.529090
v 8.127044 11.476262 -5.773484
v 7.397234 11.619741 -5.815466
v 7.412061 17.248388 -12.588810
v 6.402804 13.500841 -8.582210
v 6.313526 13.191748 -7.857776
v 7.087678 15.994487 -8.452481
v 6.263360 13.027325 -7.096952
v 5.000310 9.250003 -12.499352
v 5.022501 9.253111 -14.977671
v 6.419219 13.570322 -13.579561
v 6.198210 12.824225 -12.968280
v 6.572113 14.097291 -11.309557
v 6.528996 13.942964 -11.967737
v 5.746017 11.396713 -11.894297
v 5.815476 11.619780 -12.602755
v 7.857847 13.192027 -13.686367
v 8.583016 13.455188 -13.604208
v 6.876837 12.321267 -13.957582
v 6.114690 10.010072 -14.728382
v 7.921815 15.988697 -12.902991
v 11.967714 13.943050 -13.470981
v 11.872958 11.476254 -14.226522
v 12.602678 11.620016 -14.184446
v 13.579554 13.570338 -13.580780
v 12.082798 15.993000 -12.908558
v 12.968260 12.824281 -13.801776
v 11.919324 22.670156 -8.885297
v 11.698127 24.921825 -10.894179
v 11.224237 31.523209 -10.422167
v 11.009562 37.683598 -9.791303
v 11.140271 33.420372 -9.660935
v 11.429571 28.240976 -9.372154
v 14.190344 11.601758 -7.391679
v 14.987404 9.250921 -7.516212
v 13.468511 13.951013 -8.034187
v 13.598753 13.472380 -8.586495
v 12.912391 15.994372 -8.452546
v 13.670887 13.265187 -7.160881
v 13.957647 12.321044 -13.123240
v 13.706028 13.143497 -11.495269
v 13.687447 13.190047 -12.142721
v 8.302086 12.182047 -11.697377
v 9.006483 15.999291 -10.992567
v 8.292390 12.137026 -8.292185
v 7.500589 9.249277 -7.500550
v 4.400000 7.999999 -15.600002
v 4.400000 8.000000 -4.400002
v 3.456409 6.317455 -9.776806
v 3.839948 7.001357 -10.392357
v 3.686432 6.727599 -12.009121
v 3.764082 6.866103 -8.500594
v 3.414634 6.242948 -6.761019
v 3.384261 6.188795 -13.332424
v 3.309502 6.055507 -11.814190
v 3.297758 6.034555 -8.148768
v 2.872700 5.276622 -6.507859
v 2.929431 5.377790 -5.429776
v 2.863613 5.260406 -13.504687
v 2.938019 5.393117 -14.547904
v 2.090322 3.881640 -5.008404
v 2.333584 4.315308 -4.396422
v 2.235154 4.139764 -14.764786
v 1.535798 2.892744 -3.508496
v 2.248353 4.163308 -15.727818
v 1.190320 2.276656 -4.100586
v 1.536062 2.893215 -16.474895
v 1.649114 3.094762 -15.489518
v 0.911486 1.779469 -16.062502
v 12.499936 5.794243 -16.837038
v 13.457344 5.269248 -17.131426
v 14.445473 4.480664 -17.573671
v 16.290245 0.606168 -16.288094
v 15.912942 2.225368 -18.838451
v 15.931104 2.152275 -15.934472
v 15.187076 3.613607 -15.185980
v 15.239943 3.500224 -18.123495
v 14.213923 4.688641 -14.216666
v 13.235012 5.419999 -13.233747
v 10.775607 6.280599 -16.564247
v 8.845063 6.214892 -16.601109
v 7.521940 5.795092 -16.836535
v 6.124624 5.001879 -17.281382
v 6.181664 5.015206 -13.817179
v 5.449111 4.364426 -14.548722
v 4.865066 3.672305 -18.027069
v 4.559198 3.215993 -15.442388
v 4.098131 2.269851 -18.813490
v 3.910728 1.678635 -16.081972
v 3.716252 0.601340 -19.749254
v 7.500097 5.794258 -3.162974
v 6.542643 5.269241 -2.868572
v 6.587322 5.320179 -6.589907
v 5.341059 4.256003 -5.337596
v 3.709424 0.604478 -3.718652
v 4.087063 2.225375 -1.161554
v 4.062816 2.135579 -4.055021
v 4.760101 3.500295 -1.876545
v 4.582067 3.218646 -4.580770
v 5.554530 4.480668 -2.426334
v 9.224376 6.280600 -3.435739
v 11.154939 6.214894 -3.398895
v 12.478069 5.795091 -3.163468
v 13.875378 5.001880 -2.718621
v 13.814432 5.018203 -6.187379
v 14.550137 4.365220 -5.452456
v 15.134936 3.672307 -1.972937
v 15.173335 3.599951 -4.827905
v 15.901895 2.269815 -1.186505
v 15.649365 2.794859 -4.352611
v 16.088451 1.681585 -3.915003
v 16.283682 0.601787 -0.250999
v 15.599999 7.999999 -15.600002
v 16.546717 6.311882 -9.680551
v 16.160051 7.001355 -9.607637
v 16.235918 6.866100 -11.499421
v 16.313574 6.727591 -7.990855
v 16.673096 6.086660 -11.711001
v 16.585360 6.242961 -13.238964
v 16.756437 5.937926 -7.834507
v 16.615730 6.188811 -6.667608
v 17.043625 5.425826 -13.224245
v 17.070492 5.377928 -14.570073
v 17.061983 5.393112 -5.452092
v 17.131790 5.268591 -6.536873
v 17.428192 4.740089 -14.153478
v 17.666405 4.315326 -15.603567
v 18.088150 3.563354 -15.230017
v 17.751648 4.163310 -4.272185
v 17.686506 4.279456 -5.352779
v 18.464203 2.892738 -16.491505
v 19.054853 1.839515 -16.043287
v 18.463928 2.893235 -3.525117
v 18.585323 2.676672 -4.269440
v 19.357807 1.299321 -16.985567
v 15.600000 8.000000 -4.400002
v 19.750000 0.600000 -0.250000
v 12.998538 17.776995 -12.996049
v 12.585634 17.268484 -12.585561
v 11.172338 39.553978 -11.171933
v 11.177614 39.565662 -8.822195
v 11.006734 38.859386 -8.994946
v 11.233521 42.211315 -8.768872
v 11.233050 42.212421 -11.238817
v 10.677521 43.541462 -10.677547
v 9.388664 43.767933 -9.384989
v 8.767039 42.214966 -11.233074
v 9.040063 42.782314 -9.039360
v 8.830596 39.546017 -11.170416
v 7.401974 17.265682 -7.401199
v 7.030687 17.765047 -12.976113
v 7.015536 17.774626 -7.021801
v 9.153393 6.960745 -16.182816
v 10.890365 6.964836 -16.180527
v 12.659779 6.505178 -16.438316
v 7.929362 6.698370 -16.329979
v 6.581500 6.158707 -16.632622
v 5.137543 5.119460 -17.215437
v 14.179484 5.680997 -16.900513
v 4.288657 4.166687 -17.749771
v 3.605244 3.074590 -18.362215
v 15.566751 4.383424 -17.628183
v 16.461065 2.925314 -18.445942
v 2.997063 1.309832 -19.351929
v 10.301553 6.997378 -3.837730
v 9.096860 6.950005 -3.811141
v 11.884558 6.771849 -3.711234
v 6.147181 5.883323 -3.212943
v 7.470250 6.565421 -3.595464
v 13.754747 5.968803 -3.260881
v 15.207486 4.780550 -2.594504
v 4.306424 4.188141 -2.262266
v 5.132789 5.114540 -2.781800
v 16.388912 3.127463 -1.667423
v 3.526455 2.934571 -1.559262
v 16.988358 1.300256 -0.642703
v 11.711005 12.122449 -11.712282
v 12.499357 9.249285 -12.499411
v 11.690341 12.214772 -8.309625
v 17.272926 4.199199 -4.439990
v 18.198963 2.547980 -3.449442
v 16.675217 5.265004 -5.550432
v 16.230387 6.058187 -6.762601
v 15.898753 6.649530 -8.460838
v 15.809449 6.808780 -9.863503
v 15.889427 6.666169 -11.506935
v 16.188992 6.132012 -13.053432
v 16.677464 5.260959 -14.489396
v 17.481693 3.826877 -15.839459
v 18.417175 2.158858 -16.705763
v 19.009798 1.102128 -16.978071
v 13.177187 13.520489 -7.261941
v 14.322989 9.924464 -6.125869
v 14.330191 9.925991 -6.862556
v 13.447285 12.614844 -7.718093
v 12.514892 15.907587 -8.465583
v 13.306764 13.068415 -12.866621
v 12.519403 15.910448 -12.086289
v 12.518561 15.908799 -11.541868
v 13.345426 12.941909 -12.190858
v 10.601492 37.594048 -9.797847
v 10.874374 30.637617 -9.532692
v 11.280045 25.138857 -9.129402
v 11.420860 23.625355 -11.011440
v 10.946644 29.414141 -10.540391
v 8.430269 6.649691 -15.898657
v 13.321948 5.997439 -16.264446
v 16.563765 2.513367 -18.218353
v 15.620986 4.120469 -17.317060
v 14.392293 5.317358 -16.645851
v 11.986070 6.540225 -15.960055
v 10.264702 6.814735 -15.806119
v 6.972646 6.143191 -16.182722
v 5.745070 5.427327 -16.584187
v 3.812968 3.273255 -17.792225
v 4.686119 4.459881 -17.126738
v 3.214494 1.894229 -18.565588
v 1.912233 2.746263 -16.471863
v 2.809881 4.346890 -15.425186
v 3.324798 5.265033 -14.449533
v 3.769614 6.058192 -13.237391
v 4.101246 6.649530 -11.539165
v 4.190549 6.808781 -10.136529
v 4.110574 6.666171 -8.493077
v 3.811004 6.132011 -6.946569
v 3.351120 5.311949 -5.582531
v 2.714139 4.176147 -4.438919
v 1.972314 2.853396 -3.588439
v 0.993706 1.108335 -2.998490
v 3.699728 3.086663 -2.103140
v 4.671889 4.449487 -2.867432
v 5.661447 5.356544 -3.376122
v 6.713908 6.017160 -3.746591
v 8.256603 6.613575 -4.081066
v 9.897141 6.808363 -4.190323
v 11.074160 6.728994 -4.145795
v 12.510160 6.369802 -3.944357
v 14.094387 5.544856 -3.481758
v 15.115256 4.666444 -2.989104
v 15.950680 3.653779 -2.421174
v 16.714037 2.131900 -1.567708
v 16.978069 1.102130 -0.990202
v 12.738174 13.520126 -13.177298
v 13.137447 9.925990 -14.330194
v 12.282217 12.613708 -13.447638
v 11.534386 15.907582 -12.514896
v 6.822504 13.519460 -12.738372
v 5.669800 9.925993 -13.137449
v 6.552814 12.615292 -12.281786
v 7.485126 15.907578 -11.534389
v 7.261745 13.519825 -6.822614
v 6.125866 9.924451 -5.677075
v 6.862555 9.925994 -5.669802
v 7.718527 12.616435 -6.553167
v 8.465579 15.907582 -7.485130
v 7.133436 13.068583 -13.306717
v 7.913715 15.910449 -12.519406
v 8.458117 15.908809 -12.518562
v 7.809199 12.942113 -13.345368
v 6.693359 13.068811 -7.133506
v 7.480597 15.910450 -7.913718
v 7.481439 15.908811 -8.458118
v 6.654667 12.942220 -7.809231
v 12.866549 13.068644 -6.693312
v 12.086286 15.910450 -7.480599
v 11.541866 15.908802 -7.481440
v 12.190825 12.942016 -6.654608
v 10.467310 30.637680 -10.874375
v 10.870601 25.138868 -11.280048
v 8.988564 23.625353 -11.420864
v 9.459616 29.414190 -10.946646
v 9.810653 37.592117 -10.594863
v 9.125631 30.637711 -10.467313
v 8.719947 25.138758 -10.870616
v 8.579120 23.625204 -8.988553
v 9.114977 30.303267 -9.520736
v 9.532754 30.639198 -9.125723
v 9.129388 25.138746 -8.719951
v 11.011450 23.625217 -8.579124
v 10.540389 29.414101 -9.053359
vn -0.0000 -0.0000 1.0000
vn 1.0000 -0.0000 -0.0000
vn -1.0000 -0.0000 -0.0000
vn -0.0000 1.0000 -0.0000
vn -1.0000 -0.0032 0.0090
vn -1.0000 -0.0001 0.0001
vn -1.0000 -0.0002 -0.0000
vn -0.0000 0.9784 0.2065
vn -0.0005 0.9783 0.2074
vn 1.0000 -0.0002 -0.0000
vn -0.0000 -0.0000 -1.0000
vn 0.4892 -0.8722 -0.0000
vn 0.0006 1.0000 0.0006
vn 1.0000 -0.0029 -0.0085
vn 0.2092 0.9779 -0.0000
vn 0.0002 -0.2331 -0.9725
vn -0.0014 -0.2285 -0.9735
vn 0.0054 -0.0022 -1.0000
vn -0.0000 0.9779 0.2092
vn 0.0221 0.0112 0.9997
vn -0.0000 0.1383 0.9904
vn 0.2086 0.9780 0.0003
vn 0.2100 0.9777 0.0011
vn -0.0000 -1.0000 -0.0000
vn 0.0004 -0.0003 1.0000
vn -0.0000 -0.0300 0.9995
vn -0.0032 -0.0036 1.0000
vn -0.0070 -0.0173 0.9998
vn -0.0000 -0.0883 0.9961
vn -0.2145 -0.9767 0.0050
vn -0.2082 -0.9781 -0.0013
vn -0.0014 0.3266 0.9451
vn -0.0042 0.3313 0.9435
vn -0.0000 -0.8722 -0.4892
vn -0.0024 0.9995 -0.0323
vn 0.0356 0.9994 -0.0000
vn 0.9998 0.0100 -0.0197
vn 0.9923 0.1235 -0.0000
vn 0.2082 -0.9781 0.0029
vn 0.2133 -0.9770 -0.0010
vn 0.2092 -0.9779 -0.0000
vn 0.0147 0.9997 -0.0171
vn 0.0227 0.9994 -0.0251
vn 0.0002 0.9779 -0.2092
vn -0.0001 0.9783 -0.2073
vn -0.0027 -0.0000 1.0000
vn 0.0072 -0.9798 -0.1997
vn -0.0026 -0.9771 -0.2126
vn -0.9999 0.0100 -0.0041
vn -0.9998 -0.0000 -0.0218
vn -0.9925 0.1219 -0.0000
vn -0.0011 0.1082 -0.9941
vn 0.0001 0.1141 -0.9935
vn 0.0017 0.9997 0.0231
vn -0.0213 0.9998 -0.0000
vn -0.0065 1.0000 -0.0012
vn -0.0000 1.0000 -0.0086
vn 0.1997 -0.9798 0.0072
vn 0.2126 -0.9771 -0.0026
vn 0.9997 -0.0234 -0.0004
vn 0.9998 -0.0192 -0.0000
vn -0.0000 -0.9779 -0.2092
vn 0.9925 0.1225 -0.0011
vn 0.9932 0.1168 -0.0023
vn -0.9995 -0.0309 0.0074
vn -0.9944 -0.1054 -0.0000
vn 0.0004 -0.0000 -1.0000
vn -0.0000 -1.0000 0.0001
vn -0.0003 -1.0000 0.0001
vn -0.0001 -1.0000 -0.0001
vn -0.0000 -1.0000 0.0003
vn 0.0079 -0.9999 -0.0079
vn -0.0000 0.9784 -0.2065
vn 0.0006 0.9782 -0.2075
vn 0.0001 0.9783 0.2073
vn -0.0002 0.9779 0.2093
vn -0.9991 -0.0418 -0.0025
vn -0.9998 -0.0214 -0.0000
vn -0.2101 0.9777 -0.0012
vn -0.2084 0.9780 -0.0003
vn -0.2066 0.9784 -0.0000
vn -0.2105 0.9776 -0.0023
vn -0.0016 -0.0408 -0.9992
vn -0.0000 -0.0239 -0.9997
vn 0.2143 -0.9768 0.0012
vn 0.2145 -0.9767 0.0010
vn -0.0006 0.8722 -0.4891
vn -0.0099 0.8885 -0.4588
vn 0.2073 0.9783 -0.0001
vn 0.2092 0.9779 0.0002
vn 0.0019 0.8687 -0.4953
vn -0.0000 0.8722 -0.4891
vn 0.0003 0.9780 -0.2085
vn 0.0011 0.9777 -0.2100
vn 0.0047 1.0000 -0.0000
vn -0.0000 1.0000 -0.0054
vn -0.0163 0.3764 0.9263
vn 0.0110 0.3274 0.9448
vn -0.2092 -0.9779 -0.0000
vn -0.0013 1.0000 -0.0001
vn -0.0004 1.0000 0.0003
vn 0.0116 0.9999 0.0003
vn 0.0002 0.9999 0.0117
vn 0.0061 1.0000 0.0009
vn 0.0036 1.0000 0.0003
vn -0.0012 1.0000 -0.0046
vn 0.0001 1.0000 -0.0013
vn 0.0010 1.0000 -0.0043
vn -0.0046 1.0000 0.0012
vn -0.0068 1.0000 -0.0007
vn 0.0015 1.0000 0.0015
vn 0.0009 1.0000 0.0035
vn -0.0001 0.9999 0.0129
vn -0.0001 1.0000 -0.0003
vn -0.0198 0.0101 -0.9998
vn -0.4930 0.8700 -0.0012
vn -0.4891 0.8722 -0.0000
vn -0.0014 1.0000 0.0001
vn -0.0000 1.0000 -0.0012
vn -0.0001 1.0000 -0.0019
vn 0.0020 1.0000 0.0002
vn 0.0029 -0.9781 -0.2082
vn -0.0009 -0.9770 -0.2133
vn 1.0000 -0.0071 -0.0000
vn 1.0000 -0.0020 0.0006
vn -0.0000 -0.0055 -1.0000
vn -0.0033 -0.0326 -0.9995
vn -0.0000 -1.0000 -0.0004
vn -0.0079 -0.9999 0.0079
vn -0.0000 -0.8722 0.4891
vn 0.9999 0.0097 0.0039
vn -0.0029 -0.9781 0.2082
vn 0.0009 -0.9770 0.2133
vn 0.0026 -0.9771 0.2126
vn -0.0002 -0.9779 0.2089
vn -0.0012 -0.9768 0.2143
vn -0.0065 -0.0026 1.0000
vn -0.4891 -0.8722 -0.0000
vn -0.4891 0.8722 0.0036
vn -0.4965 0.8681 0.0013
vn -0.2092 0.9779 -0.0000
vn -0.0000 -0.0002 -1.0000
vn -0.2082 -0.9781 -0.0029
vn -0.2133 -0.9770 0.0009
vn 0.4964 0.8681 -0.0013
vn 0.4891 0.8722 -0.0036
vn 0.0018 1.0000 0.0001
vn -0.0000 1.0000 -0.0008
vn -0.0003 0.9780 0.2084
vn -0.0012 0.9777 0.2100
vn -0.0000 0.8722 0.4891
vn -0.0094 0.8545 0.5194
vn -0.0005 1.0000 -0.0097
vn -0.0000 0.9999 -0.0159
vn 0.0154 0.9999 -0.0000
vn 0.0070 1.0000 0.0007
vn -0.0000 1.0000 0.0086
vn -0.0006 1.0000 -0.0006
vn 0.2074 0.9783 0.0005
vn 0.2065 0.9784 -0.0000
vn 0.0036 0.8722 0.4891
vn 0.0013 0.8681 0.4964
vn 0.0001 1.0000 0.0003
vn 0.0003 -1.0000 -0.0000
vn -0.0006 -1.0000 0.0009
vn 1.0000 -0.0000 -0.0027
vn -0.2089 -0.9779 -0.0002
vn -0.2126 -0.9771 0.0026
vn -0.0000 -0.0002 1.0000
vn -0.0000 0.0819 -0.9966
vn 0.0143 -0.0000 -0.9999
vn 0.0027 0.0066 -1.0000
vn 0.4891 0.8722 0.0049
vn 0.4774 0.8787 0.0012
vn -0.0000 0.4891 -0.8722
vn 0.0010 -0.9767 -0.2145
vn 0.0012 -0.9767 -0.2144
vn -0.2093 0.9779 -0.0002
vn -0.2073 0.9783 0.0001
vn -0.0000 -0.9779 0.2092
vn -0.0004 1.0000 0.0004
vn -0.0000 0.9779 -0.2092
vn -0.0163 0.1099 0.9938
vn -0.0000 0.1281 0.9918
vn 0.0012 0.1224 0.9925
vn 0.0121 0.1101 0.9938
vn 0.0176 0.1103 0.9937
vn 0.0219 0.1082 0.9939
vn 0.0043 0.0719 0.9974
vn -0.0348 0.0646 0.9973
vn 0.0297 0.0364 0.9989
vn 0.0388 0.0212 0.9990
vn -0.0329 0.0234 0.9992
vn 0.0079 -0.0043 1.0000
vn 0.0041 -0.0004 1.0000
vn -0.0082 0.0309 0.9995
vn -0.0164 0.0567 0.9983
vn 0.0520 0.0637 0.9966
vn -0.0412 0.0911 0.9950
vn -0.9941 0.1081 0.0012
vn -0.9921 0.1255 -0.0024
vn -0.9938 0.1099 -0.0163
vn -0.9936 0.1127 -0.0029
vn -0.9939 0.1082 0.0219
vn -0.9974 0.0719 0.0043
vn -0.9973 0.0646 -0.0348
vn -0.9989 0.0364 0.0297
vn -0.9995 0.0185 0.0262
vn -1.0000 -0.0014 -0.0035
vn -0.9999 -0.0115 0.0073
vn -0.9988 0.0209 -0.0450
vn -0.9994 0.0311 -0.0143
vn -0.9987 0.0480 0.0185
vn -0.9983 0.0566 -0.0148
vn -0.9968 0.0769 0.0222
vn -0.9958 0.0893 -0.0206
vn -0.9942 0.1050 0.0226
vn 0.0029 0.1127 -0.9936
vn 0.0082 0.1051 -0.9944
vn -0.0044 0.1080 -0.9941
vn 0.0140 0.0777 -0.9969
vn -0.0282 0.0736 -0.9969
vn 0.0286 0.0472 -0.9985
vn -0.0263 0.0364 -0.9990
vn -0.0265 0.0184 -0.9995
vn 0.0001 0.0004 -1.0000
vn -0.0085 -0.0084 -0.9999
vn 0.0312 0.0184 -0.9993
vn 0.0142 0.0311 -0.9994
vn -0.0185 0.0480 -0.9987
vn 0.0148 0.0566 -0.9983
vn -0.0222 0.0769 -0.9968
vn 0.0206 0.0893 -0.9958
vn -0.0226 0.1050 -0.9942
vn 0.0020 0.2440 0.9698
vn -0.0000 0.2457 0.9693
vn 0.0124 0.2450 0.9695
vn 0.0045 0.2390 0.9710
vn -0.0009 0.2204 0.9754
vn -0.0000 0.2043 0.9789
vn -0.0124 0.2434 0.9699
vn -0.0311 0.2328 0.9720
vn -0.0232 0.2381 0.9710
vn -0.0137 0.2635 0.9646
vn 0.0015 0.2628 0.9648
vn 0.0014 0.2552 0.9669
vn -0.0071 0.2052 0.9787
vn 0.0139 0.3148 0.9491
vn 0.0065 0.3142 0.9493
vn -0.0103 0.3233 0.9462
vn 0.0149 0.3178 0.9480
vn -0.0276 0.2831 0.9587
vn 0.0215 0.2739 0.9615
vn 0.0080 0.3181 0.9480
vn -0.0072 0.3299 0.9440
vn 0.0001 0.3354 0.9421
vn -0.0049 0.3462 0.9381
vn 0.0133 0.3225 0.9465
vn -0.0152 0.3162 0.9486
vn 0.0222 0.2848 0.9583
vn -0.0236 0.2772 0.9605
vn 0.0351 0.2299 0.9726
vn -0.0071 0.2395 0.9709
vn 0.0238 0.2649 0.9640
vn 0.0237 0.2582 0.9658
vn -0.0488 0.2908 0.9555
vn 0.0026 0.2929 0.9561
vn -0.9698 0.2440 0.0020
vn -0.9693 0.2457 -0.0000
vn -0.9710 0.2381 -0.0232
vn -0.9720 0.2328 -0.0311
vn -0.9690 0.2470 -0.0058
vn -0.9739 0.2269 -0.0000
vn -0.9592 0.2826 -0.0028
vn -0.9699 0.2431 -0.0136
vn -0.9642 0.2651 -0.0057
vn -0.9643 0.2648 0.0001
vn -0.9696 0.2449 -0.0001
vn -0.9692 0.2463 0.0001
vn -0.9502 0.3116 0.0026
vn -0.9498 0.3126 0.0163
vn -0.9463 0.3230 -0.0112
vn -0.9450 0.3271 -0.0081
vn -0.9494 0.3140 -0.0004
vn -0.9483 0.3169 0.0169
vn -0.9586 0.2836 -0.0261
vn -0.9617 0.2732 0.0207
vn -0.9480 0.3183 0.0073
vn -0.9440 0.3299 -0.0071
vn -0.9533 0.3011 0.0228
vn -0.9442 0.3292 -0.0080
vn -0.9471 0.3208 -0.0042
vn -0.9504 0.3110 0.0033
vn -0.9666 0.2553 0.0209
vn -0.9615 0.2745 -0.0125
vn -0.9703 0.2414 -0.0160
vn -0.9709 0.2394 -0.0072
vn -0.9696 0.2449 -0.0006
vn -0.9650 0.2622 -0.0008
vn -0.9649 0.2625 0.0017
vn -0.9559 0.2937 -0.0063
vn -0.9558 0.2939 -0.0012
vn -0.0196 0.2294 -0.9731
vn -0.0000 0.2457 -0.9693
vn -0.0281 0.2312 -0.9725
vn -0.0126 0.2429 -0.9700
vn -0.0000 0.2888 -0.9574
vn -0.0005 0.2787 -0.9604
vn 0.0105 0.2424 -0.9701
vn 0.0136 0.2635 -0.9646
vn -0.0015 0.2628 -0.9648
vn -0.0014 0.2552 -0.9669
vn 0.0071 0.2052 -0.9787
vn -0.0140 0.3148 -0.9491
vn -0.0065 0.3142 -0.9493
vn -0.0036 0.3174 -0.9483
vn -0.0039 0.3178 -0.9481
vn 0.0016 0.3269 -0.9451
vn 0.0293 0.2994 -0.9537
vn 0.0286 0.2528 -0.9671
vn -0.0222 0.2821 -0.9591
vn 0.0489 0.2908 -0.9555
vn -0.0026 0.2929 -0.9561
vn -0.0080 0.3181 -0.9480
vn 0.0072 0.3299 -0.9440
vn -0.0228 0.3011 -0.9533
vn 0.0080 0.3292 -0.9442
vn 0.0042 0.3208 -0.9472
vn -0.0033 0.3110 -0.9504
vn 0.0129 0.2407 -0.9705
vn 0.0072 0.2394 -0.9709
vn -0.0238 0.2649 -0.9640
vn -0.0237 0.2582 -0.9658
vn -0.0232 0.2540 -0.9669
vn 0.0125 0.2745 -0.9615
vn 0.9938 0.1101 -0.0121
vn 0.9937 0.1103 -0.0176
vn 0.9944 0.1051 0.0082
vn 0.9941 0.1080 -0.0044
vn 0.9969 0.0777 0.0140
vn 0.9969 0.0736 -0.0282
vn 0.9985 0.0472 0.0286
vn 0.9990 0.0364 -0.0263
vn 0.9993 0.0230 -0.0303
vn 1.0000 0.0023 0.0002
vn 0.9999 -0.0073 -0.0091
vn 0.9994 0.0189 0.0294
vn 0.9995 0.0309 0.0080
vn 0.9983 0.0567 0.0164
vn 0.9966 0.0637 -0.0520
vn 0.9950 0.0911 0.0413
vn 0.9471 0.3210 0.0015
vn 0.9454 0.3258 -0.0046
vn 0.9344 0.3560 0.0094
vn 0.9468 0.3212 -0.0172
vn 0.9471 0.3195 0.0312
vn 0.9574 0.2877 -0.0236
vn 0.9649 0.2626 -0.0000
vn 0.9680 0.2511 -0.0021
vn 0.9731 0.2294 -0.0196
vn 0.9693 0.2457 -0.0000
vn 0.9797 0.2002 0.0065
vn 0.9726 0.2308 -0.0262
vn 0.9701 0.2424 -0.0104
vn 0.9609 0.2768 -0.0000
vn 0.9779 0.2092 -0.0035
vn 0.9714 0.2372 -0.0124
vn 0.9703 0.2413 -0.0180
vn 0.9649 0.2625 0.0014
vn 0.9696 0.2448 0.0012
vn 0.9708 0.2396 0.0074
vn 0.9726 0.2299 -0.0351
vn 0.9615 0.2742 0.0198
vn 0.9581 0.2858 -0.0184
vn 0.9496 0.3129 0.0200
vn 0.9673 0.2518 0.0302
vn 0.9591 0.2821 -0.0222
vn 0.9537 0.2994 0.0293
vn 0.9483 0.3174 -0.0036
vn 0.9494 0.3141 -0.0010
vn 0.9477 0.3191 0.0020
vn 0.9499 0.3125 -0.0064
vn 0.9500 0.3123 -0.0048
vn 0.9627 0.2706 -0.0082
vn 0.9642 0.2652 0.0060
vn 0.0074 -0.2659 0.9640
vn 0.0003 -0.2714 0.9625
vn -0.0114 -0.2083 0.9780
vn -0.0030 -0.1606 0.9870
vn 0.0161 -0.1844 0.9827
vn -0.0040 -0.1652 -0.9863
vn 0.0165 -0.1860 -0.9824
vn -0.0197 -0.2340 -0.9720
vn 0.0117 -0.2673 -0.9635
vn -0.9430 -0.3328 -0.0000
vn -0.8722 0.4891 -0.0000
vn -0.8722 0.4892 -0.0000
vn -0.8722 0.4892 0.0001
vn -0.9744 -0.2249 0.0014
vn -0.9740 -0.2263 0.0004
vn -0.8923 -0.4514 -0.0058
vn -0.8838 -0.4678 0.0021
vn -0.7740 -0.6331 0.0105
vn -0.7459 -0.6660 -0.0102
vn -0.6222 -0.7828 0.0056
vn -0.6007 -0.7995 -0.0033
vn -0.4792 -0.8777 0.0066
vn -0.4495 -0.8933 -0.0011
vn -0.2697 -0.9629 0.0121
vn -0.3191 -0.9477 -0.0011
vn -0.1240 -0.9922 -0.0129
vn 0.0338 -0.9994 0.0099
vn 0.0734 -0.9973 -0.0031
vn 0.3019 -0.9533 0.0034
vn 0.3052 -0.9523 0.0023
vn 0.4928 -0.8701 0.0037
vn 0.5160 -0.8566 -0.0052
vn 0.6687 -0.7435 -0.0081
vn 0.7212 -0.6926 0.0167
vn 0.7952 -0.6062 -0.0129
vn 0.8731 -0.4872 0.0173
vn 0.9241 -0.3818 -0.0192
vn 0.9726 -0.2319 0.0165
vn 0.9861 -0.1658 -0.0036
vn 0.6553 -0.7553 0.0102
vn 0.9744 -0.2249 -0.0014
vn 0.9743 -0.2251 -0.0012
vn 0.9028 -0.4300 0.0058
vn 0.8822 -0.4708 -0.0090
vn 0.8097 -0.5868 0.0078
vn 0.7747 -0.6323 -0.0080
vn 0.6229 -0.7823 -0.0032
vn 0.4793 -0.8776 -0.0063
vn 0.4550 -0.8905 0.0020
vn 0.2697 -0.9629 -0.0121
vn 0.3229 -0.9464 0.0021
vn 0.1240 -0.9922 0.0129
vn -0.0338 -0.9994 -0.0099
vn -0.0734 -0.9973 0.0031
vn -0.3019 -0.9533 -0.0034
vn -0.3056 -0.9522 -0.0022
vn -0.4928 -0.8701 -0.0036
vn -0.5154 -0.8569 0.0050
vn -0.6684 -0.7438 0.0082
vn -0.7212 -0.6926 -0.0167
vn -0.7776 -0.6288 0.0055
vn -0.8611 -0.5084 0.0013
vn -0.8748 -0.4843 -0.0105
vn -0.9321 -0.3620 0.0143
vn -0.9726 -0.2319 -0.0165
vn -0.9861 -0.1662 0.0036
vn 0.8722 0.4891 -0.0000
vn 0.8722 0.4892 -0.0000
vn 0.8722 0.4891 -0.0001
vn 0.9656 -0.2599 0.0060
vn 0.9430 -0.3328 -0.0000
vn 0.7765 -0.6302 0.0004
vn 0.7771 -0.6294 0.0003
vn 0.9003 -0.4353 -0.0005
vn 0.8993 -0.4373 0.0002
vn 0.9728 -0.2317 -0.0010
vn 0.9719 -0.2352 0.0002
vn 0.9925 0.1219 -0.0001
vn 0.9998 -0.0000 0.0211
vn 0.9240 0.3825 -0.0000
vn 0.9221 0.3870 -0.0038
vn 0.9898 0.1427 0.0033
vn 0.9892 0.1464 -0.0015
vn -0.9206 0.3902 -0.0182
vn -0.8805 0.4739 -0.0130
vn -0.9392 0.3422 0.0284
vn -0.9894 0.1431 0.0250
vn -0.9949 0.0973 -0.0271
vn -0.9994 0.0336 -0.0073
vn -0.9730 -0.2306 0.0094
vn -0.9400 -0.3405 -0.0211
vn -0.9019 -0.4319 0.0061
vn -0.8047 -0.5937 0.0004
vn -0.7968 -0.6042 -0.0011
vn -0.0122 0.9999 0.0008
vn 0.0005 1.0000 0.0077
vn -0.0026 1.0000 0.0026
vn 0.0005 1.0000 -0.0005
vn -0.0063 1.0000 -0.0000
vn -0.0013 -0.6275 -0.7786
vn 0.0028 -0.5985 -0.8011
vn 0.0009 -0.4298 -0.9029
vn -0.0007 -0.4351 -0.9004
vn -0.0022 0.1089 -0.9940
vn 0.0043 0.1448 -0.9894
vn -0.0016 0.1496 -0.9887
vn 0.0019 0.3840 -0.9233
vn -0.0017 0.3884 -0.9215
vn -0.0000 -0.3328 -0.9430
vn -0.0000 0.4892 -0.8722
vn 0.0082 0.0375 0.9993
vn 0.0027 -0.5964 0.8027
vn -0.0023 -0.6321 0.7749
vn 0.0210 -0.3454 0.9382
vn -0.0107 -0.2351 0.9719
vn -0.0051 -0.4355 0.9002
vn 0.0143 0.4724 0.8813
vn 0.0189 0.1010 0.9947
vn -0.0195 0.1346 0.9907
vn 0.0060 -0.2599 0.9656
vn -0.0000 -0.3328 0.9430
vn -0.0000 0.4891 0.8722
vn -0.0000 0.4892 0.8722
vn -0.0001 0.4891 0.8722
vn 0.0001 0.4891 0.8722
vn 0.0118 -0.3618 -0.9322
vn -0.0068 -0.8895 -0.4569
vn 0.0099 -0.8550 -0.5185
vn -0.0092 -0.7695 -0.6385
vn 0.0007 -0.7472 -0.6646
vn 0.0075 -0.6286 -0.7777
vn -0.0187 -0.5671 -0.8235
vn 0.0040 -0.5066 -0.8622
vn -0.0253 -0.2785 -0.9601
vn 0.0085 -0.1684 -0.9857
vn 0.0071 -0.9507 -0.3099
vn 0.0110 -0.9944 -0.1052
vn -0.0144 -0.9803 -0.1970
vn -0.0085 -0.9927 0.1203
vn -0.0127 -0.9939 0.1095
vn 0.0113 -0.9542 0.2988
vn 0.0002 -0.8927 0.4506
vn -0.0101 -0.9173 0.3981
vn -0.0003 -0.8024 0.5968
vn 0.0012 -0.8044 0.5941
vn -0.0037 -0.6761 0.7368
vn -0.0003 -0.6698 0.7425
vn 0.0057 -0.4536 0.8912
vn -0.0118 -0.4321 0.9018
vn 0.0119 -0.2203 0.9754
vn -0.0051 -0.1837 0.9830
vn -0.0068 -0.3816 0.9243
vn 0.0139 -0.9062 0.4226
vn -0.0138 -0.8526 0.5224
vn 0.0068 -0.7505 0.6608
vn 0.0078 -0.7492 0.6623
vn -0.0108 -0.6089 0.7932
vn 0.0106 -0.5739 0.8189
vn 0.0018 -0.4002 0.9164
vn 0.0006 -0.1730 0.9849
vn -0.0000 -0.1744 0.9847
vn -0.0073 -0.9501 0.3117
vn 0.0086 -0.9922 0.1240
vn 0.0098 -0.9919 0.1268
vn -0.0115 -0.9972 -0.0734
vn 0.0137 -0.9854 -0.1699
vn 0.0004 -0.8910 -0.4540
vn 0.0103 -0.9088 -0.4171
vn -0.0078 -0.9490 -0.3152
vn -0.0055 -0.7593 -0.6507
vn 0.0163 -0.7363 -0.6765
vn -0.0153 -0.5820 -0.8131
vn 0.0159 -0.4990 -0.8664
vn -0.0070 -0.4340 -0.9009
vn 0.0044 -0.2247 -0.9744
vn 0.0002 -0.2146 -0.9767
vn -0.0118 -0.1858 0.9825
vn 0.0014 -0.1737 0.9848
vn 0.0167 -0.2391 0.9709
vn -0.0090 -0.2665 0.9638
vn 0.0175 -0.2403 -0.9705
vn -0.0062 -0.2650 -0.9642
vn -0.0208 -0.1848 -0.9826
vn 0.0034 -0.1605 -0.9870
vn -0.9642 -0.2650 -0.0061
vn -0.9705 -0.2406 0.0173
vn -0.9826 -0.1847 -0.0206
vn -0.9870 -0.1608 0.0034
vn 0.9827 -0.1849 -0.0103
vn 0.9813 -0.1921 0.0140
vn 0.9639 -0.2661 -0.0065
vn 0.9626 -0.2708 0.0001
vn 0.9641 -0.2654 0.0062
vn 0.9705 -0.2405 -0.0176
vn 0.9825 -0.1852 0.0211
vn 0.9870 -0.1608 -0.0034
vn -0.9827 -0.1850 0.0103
vn -0.9813 -0.1922 -0.0138
vn -0.9639 -0.2662 0.0063
vn -0.9626 -0.2708 -0.0001
vn 0.0001 -0.0001 -1.0000
vn -0.0001 -0.0001 1.0000
vn -1.0000 0.0004 0.0014
vn 1.0000 -0.0001 -0.0001
vn -0.1582 0.2034 0.9662
vn -0.0811 0.2724 0.9588
vn -0.2820 0.3723 0.8842
vn -0.2471 0.3846 0.8894
vn -0.2218 0.6074 0.7628
vn -0.3736 0.5605 0.7391
vn -0.3849 0.7013 0.6001
vn -0.3855 0.7008 0.6003
vn -0.3826 0.8219 0.4220
vn -0.5571 0.7445 0.3680
vn -0.3847 0.9034 0.1895
vn -0.5479 0.8266 0.1287
vn -0.4957 0.8628 -0.0990
vn -0.4334 0.8975 -0.0815
vn -0.4587 0.8087 -0.3682
vn -0.4098 0.8295 -0.3795
vn -0.4577 0.6825 -0.5697
vn -0.3390 0.7276 -0.5964
vn -0.3763 0.5144 -0.7706
vn -0.3233 0.5604 -0.7625
vn -0.1312 0.4709 -0.8724
vn -0.3279 0.2841 -0.9010
vn -0.0278 0.2818 -0.9591
vn -0.1240 0.1818 -0.9755
vn 0.2149 -0.3832 -0.8983
vn 0.2150 -0.3832 0.8983
vn 0.2149 -0.3832 0.8983
vn 0.0429 -0.2516 -0.9669
vn 0.0693 -0.2485 -0.9661
vn 0.0473 -0.2872 -0.9567
vn 0.0676 -0.2832 -0.9567
vn -0.0815 0.2939 0.9524
vn -0.0095 0.3004 0.9538
vn -0.1105 0.2305 0.9668
vn 0.0311 0.2296 0.9728
vn -0.0717 0.1813 0.9808
vn 0.9491 0.3148 0.0099
vn 0.9547 0.2967 -0.0238
vn 0.9608 0.2766 0.0198
vn 0.9644 0.2642 -0.0066
vn 0.0349 -0.2972 0.9542
vn 0.0674 -0.2921 0.9540
vn 0.0966 -0.2470 0.9642
vn 0.0319 -0.2564 0.9660
vn -0.0560 0.1925 -0.9797
vn -0.0146 0.2098 -0.9776
vn -0.0671 0.2784 -0.9581
vn -0.0651 0.2788 -0.9581
vn 0.9630 0.2694 -0.0047
vn 0.9639 0.2664 0.0023
vn 0.9505 0.3108 -0.0006
vn 0.9511 0.3088 0.0034
vn 0.0480 -0.2246 -0.9733
vn 0.0481 -0.2246 -0.9733
vn 0.0481 -0.2246 0.9733
vn 0.9708 0.2399 -0.0000
vn 0.0226 -0.0299 -0.9993
vn -0.0590 -0.0403 -0.9974
vn 0.0637 -0.0520 -0.9966
vn -0.0401 -0.0760 -0.9963
vn 0.0668 -0.0810 -0.9945
vn -0.0284 -0.1056 -0.9940
vn 0.0506 -0.1061 -0.9931
vn 0.0195 -0.1062 0.9942
vn 0.0486 -0.1003 0.9938
vn -0.0306 -0.0836 0.9960
vn 0.0756 -0.0657 0.9950
vn -0.0749 -0.0460 0.9961
vn 0.0475 -0.0334 0.9983
vn 0.9941 0.1086 0.0030
vn 0.9947 0.1024 -0.0080
vn 0.9967 0.0809 0.0095
vn 0.9972 0.0724 -0.0163
vn 0.9989 0.0421 0.0205
vn 0.9991 0.0385 -0.0171
vn 0.9666 0.2021 0.1575
vn 0.9576 0.2787 0.0724
vn 0.8814 0.4252 0.2057
vn 0.8890 0.3704 0.2694
vn 0.7447 0.5681 0.3503
vn 0.7300 0.6234 0.2801
vn 0.5871 0.6659 0.4603
vn 0.5246 0.7915 0.3135
vn 0.4197 0.7314 0.5376
vn 0.2822 0.9003 0.3315
vn 0.1778 0.7742 0.6075
vn -0.0027 0.9297 0.3683
vn -0.1016 0.7893 0.6056
vn -0.2372 0.8955 0.3766
vn -0.4164 0.8211 0.3903
vn -0.3692 0.7730 0.5159
vn -0.5522 0.6648 0.5030
vn -0.6297 0.7365 0.2469
vn -0.7196 0.5496 0.4245
vn -0.7874 0.5704 0.2339
vn -0.8389 0.4309 0.3324
vn -0.8746 0.4581 0.1591
vn -0.9318 0.2659 0.2469
vn -0.9505 0.3089 0.0332
vn -0.9760 0.1473 0.1604
vn -0.8983 -0.3832 -0.2149
vn -0.8983 -0.3832 -0.2150
vn 0.8983 -0.3832 -0.2149
vn 0.1626 0.2112 -0.9638
vn 0.1083 0.2575 -0.9602
vn 0.1733 0.4253 -0.8883
vn 0.3434 0.3715 -0.8626
vn 0.2101 0.6129 -0.7617
vn 0.3745 0.5684 -0.7326
vn 0.3849 0.7013 -0.6001
vn 0.3855 0.7008 -0.6003
vn 0.3826 0.8219 -0.4220
vn 0.5571 0.7445 -0.3680
vn 0.3847 0.9034 -0.1895
vn 0.5479 0.8266 -0.1287
vn 0.4957 0.8628 0.0990
vn 0.4335 0.8975 0.0815
vn 0.4587 0.8087 0.3682
vn 0.4098 0.8295 0.3795
vn 0.4571 0.6858 0.5664
vn 0.3302 0.7319 0.5960
vn 0.2956 0.5757 0.7624
vn 0.3586 0.5548 0.7507
vn 0.2510 0.4200 0.8721
vn 0.2000 0.4356 0.8776
vn 0.1946 0.2144 0.9572
vn 0.0910 0.2480 0.9645
vn -0.2149 -0.3832 0.8983
vn -0.2149 -0.3832 -0.8983
vn -0.9635 0.2524 -0.0894
vn -0.9484 0.1995 -0.2464
vn -0.8750 0.4603 -0.1501
vn -0.8461 0.4183 -0.3303
vn -0.7865 0.5743 -0.2270
vn -0.7214 0.5535 -0.4163
vn -0.6538 0.6953 -0.2984
vn -0.5830 0.6768 -0.4494
vn -0.5067 0.7925 -0.3393
vn -0.4003 0.7114 -0.5776
vn -0.2583 0.9086 -0.3282
vn -0.1340 0.8018 -0.5823
vn -0.0450 0.9010 -0.4314
vn 0.0770 0.8393 -0.5382
vn 0.1603 0.9074 -0.3885
vn 0.2731 0.7639 -0.5846
vn 0.4361 0.8500 -0.2955
vn 0.5085 0.6816 -0.5262
vn 0.6804 0.6832 -0.2651
vn 0.7023 0.6231 -0.3443
vn 0.8107 0.4840 -0.3294
vn 0.8373 0.5348 -0.1134
vn 0.9026 0.2604 -0.3429
vn 0.9507 0.3102 -0.0031
vn 0.9755 0.1773 -0.1299
vn 0.8983 -0.3832 0.2149
vn -0.8983 -0.3832 0.2149
vn -0.9733 -0.2246 -0.0481
vn 0.9733 -0.2246 -0.0481
vn -0.0000 0.2399 -0.9708
vn -0.0480 -0.2246 0.9733
vn -0.0481 -0.2246 0.9733
vn -0.0481 -0.2246 -0.9733
vn -0.9708 0.2399 -0.0000
vn 0.9733 -0.2246 0.0481
vn -0.9733 -0.2246 0.0481
vn -0.0000 0.2399 0.9708
vn -0.9669 -0.2516 -0.0429
vn -0.9656 -0.2472 -0.0803
vn -0.9555 -0.2941 -0.0243
vn -0.9554 -0.2838 -0.0814
vn 0.9524 0.2937 0.0814
vn 0.9538 0.3002 0.0099
vn 0.9669 0.2307 0.1094
vn 0.9728 0.2296 -0.0309
vn 0.9808 0.1814 0.0719
vn 0.0099 0.3148 -0.9491
vn -0.0238 0.2967 -0.9547
vn 0.0198 0.2766 -0.9608
vn -0.0066 0.2642 -0.9644
vn -0.0429 -0.2516 0.9669
vn -0.0803 -0.2472 0.9656
vn -0.0243 -0.2941 0.9555
vn -0.0814 -0.2838 0.9554
vn 0.0814 0.2937 -0.9524
vn 0.0098 0.3003 -0.9538
vn 0.1095 0.2307 -0.9669
vn -0.0308 0.2296 -0.9728
vn 0.0719 0.1814 -0.9808
vn -0.9491 0.3148 -0.0100
vn -0.9547 0.2967 0.0237
vn -0.9608 0.2766 -0.0198
vn -0.9644 0.2642 0.0067
vn 0.9669 -0.2516 0.0429
vn 0.9657 -0.2472 0.0800
vn 0.9555 -0.2940 0.0247
vn 0.9554 -0.2838 0.0815
vn -0.9524 0.2937 -0.0814
vn -0.9538 0.3003 -0.0097
vn -0.9669 0.2307 -0.1095
vn -0.9728 0.2295 0.0308
vn -0.9808 0.1814 -0.0718
vn -0.0100 0.3148 0.9491
vn 0.0237 0.2967 0.9547
vn -0.0198 0.2766 0.9608
vn 0.0067 0.2642 0.9644
vn 0.9542 -0.2972 -0.0349
vn 0.9540 -0.2921 -0.0674
vn 0.9642 -0.2470 -0.0966
vn 0.9660 -0.2564 -0.0319
vn -0.9797 0.1924 0.0559
vn -0.9776 0.2098 0.0143
vn -0.9581 0.2784 0.0673
vn -0.9581 0.2788 0.0651
vn -0.0047 0.2694 -0.9630
vn 0.0023 0.2664 -0.9639
vn -0.0006 0.3108 -0.9505
vn 0.0034 0.3088 -0.9511
vn -0.0531 -0.2916 -0.9551
vn -0.0648 -0.2893 -0.9550
vn -0.0581 -0.2493 -0.9667
vn -0.0542 -0.2509 -0.9665
vn 0.0559 0.1924 0.9797
vn 0.0144 0.2098 0.9776
vn 0.0673 0.2784 0.9581
vn 0.0651 0.2788 0.9581
vn -0.9630 0.2694 0.0047
vn -0.9639 0.2664 -0.0023
vn -0.9505 0.3108 0.0006
vn -0.9511 0.3088 -0.0034
vn -0.9547 -0.2942 0.0447
vn -0.9547 -0.2900 0.0670
vn -0.9667 -0.2482 0.0621
vn -0.9664 -0.2514 0.0543
vn 0.9797 0.1925 -0.0560
vn 0.9776 0.2098 -0.0145
vn 0.9581 0.2784 -0.0672
vn 0.9581 0.2788 -0.0651
vn 0.0047 0.2694 0.9630
vn -0.0023 0.2664 0.9639
vn 0.0006 0.3108 0.9505
vn -0.0034 0.3088 0.9511
vn -0.9993 -0.0298 -0.0225
vn -0.9974 -0.0403 0.0592
vn -0.9966 -0.0520 -0.0636
vn -0.9963 -0.0760 0.0401
vn -0.9945 -0.0810 -0.0668
vn -0.9940 -0.1056 0.0284
vn -0.9931 -0.1061 -0.0506
vn 0.9942 -0.1062 -0.0195
vn 0.9938 -0.1003 -0.0486
vn 0.9960 -0.0836 0.0306
vn 0.9950 -0.0657 -0.0756
vn 0.9961 -0.0460 0.0749
vn 0.9983 -0.0334 -0.0475
vn 0.0030 0.1086 -0.9941
vn -0.0079 0.1024 -0.9947
vn 0.0095 0.0809 -0.9967
vn -0.0164 0.0724 -0.9972
vn 0.0205 0.0421 -0.9989
vn -0.0171 0.0385 -0.9991
vn -0.0225 -0.0299 0.9993
vn 0.0591 -0.0403 0.9974
vn -0.0636 -0.0520 0.9966
vn 0.0401 -0.0760 0.9963
vn -0.0668 -0.0810 0.9945
vn 0.0284 -0.1056 0.9940
vn -0.0506 -0.1061 0.9931
vn -0.0195 -0.1062 -0.9942
vn -0.0485 -0.1003 -0.9938
vn 0.0364 -0.0823 -0.9959
vn -0.0702 -0.0661 -0.9953
vn 0.0284 -0.0388 -0.9988
vn -0.0131 -0.0346 -0.9993
vn -0.9941 0.1086 -0.0030
vn -0.9947 0.1024 0.0079
vn -0.9968 0.0791 -0.0110
vn -0.9973 0.0725 0.0144
vn -0.9992 0.0391 0.0026
vn -0.9992 0.0378 -0.0117
vn 0.9993 -0.0299 0.0226
vn 0.9975 -0.0403 -0.0589
vn 0.9966 -0.0520 0.0635
vn 0.9963 -0.0760 -0.0402
vn 0.9945 -0.0810 0.0668
vn 0.9940 -0.1056 -0.0284
vn 0.9931 -0.1061 0.0506
vn -0.9942 -0.1062 0.0195
vn -0.9938 -0.1003 0.0485
vn -0.9960 -0.0835 -0.0305
vn -0.9950 -0.0657 0.0755
vn -0.9961 -0.0460 -0.0748
vn -0.9983 -0.0334 0.0474
vn -0.0030 0.1086 0.9941
vn 0.0079 0.1024 0.9947
vn -0.0095 0.0809 0.9967
vn 0.0164 0.0724 0.9972
vn -0.0206 0.0421 0.9989
vn 0.0171 0.0385 0.9991
s 0
usemtl Scene_-_Root
f 1//1 2//1 3//1
f 2//1 4//1 3//1
f 5//2 6//2 2//2
f 6//2 4//2 2//2
f 7//3 8//3 3//3
f 8//3 1//3 3//3
f 9//4 10//4 11//4
f 10//4 12//4 11//4
f 13//5 14//5 61//5
f 14//3 13//3 15//3
f 13//6 507//6 15//6
f 15//7 507//7 16//7
f 11//1 17//1 9//1
f 17//1 18//1 9//1
f 573//8 20//8 21//8
f 20//9 22//9 21//9
f 23//3 24//3 25//3
f 24//3 26//3 25//3
f 27//1 29//1 28//1
f 30//10 375//10 282//10
f 31//11 32//11 33//11
f 32//11 34//11 33//11
f 35//11 36//11 37//11
f 36//11 38//11 37//11
f 40//12 41//12 42//12
f 41//12 43//12 42//12
f 44//4 45//4 46//4
f 45//13 47//13 46//13
f 48//14 49//14 28//14
f 50//11 51//11 52//11
f 51//11 53//11 52//11
f 36//2 35//2 54//2
f 35//2 55//2 54//2
f 56//15 57//15 58//15
f 57//15 59//15 58//15
f 478//16 469//16 300//16
f 469//17 60//17 300//17
f 61//18 62//18 13//18
f 63//19 64//19 65//19
f 64//19 66//19 65//19
f 7//1 67//1 8//1
f 67//20 472//20 8//20
f 8//21 472//21 5//21
f 68//22 69//22 70//22
f 69//23 71//23 70//23
f 34//3 32//3 72//3
f 32//3 73//3 72//3
f 2//24 1//24 5//24
f 1//24 8//24 5//24
f 74//25 39//25 507//25
f 75//26 481//26 76//26
f 481//27 77//27 76//27
f 78//28 79//28 80//28
f 79//29 81//29 80//29
f 82//30 83//30 301//30
f 83//31 84//31 301//31
f 85//32 86//32 87//32
f 86//33 88//33 87//33
f 89//34 90//34 91//34
f 90//34 92//34 91//34
f 93//4 94//4 95//4
f 94//35 96//35 95//35
f 95//36 96//36 97//36
f 98//2 51//2 99//2
f 51//2 50//2 99//2
f 100//2 101//2 102//2
f 101//37 473//37 102//37
f 102//38 473//38 53//38
f 103//3 104//3 105//3
f 104//3 106//3 105//3
f 107//39 525//39 108//39
f 525//40 367//40 108//40
f 109//41 110//41 111//41
f 110//41 112//41 111//41
f 113//42 114//42 115//42
f 114//43 116//43 115//43
f 117//1 106//1 118//1
f 106//1 104//1 118//1
f 119//44 120//44 287//44
f 120//45 121//45 287//45
f 122//2 123//2 124//2
f 123//2 125//2 124//2
f 23//46 25//46 126//46
f 350//47 127//47 586//47
f 127//48 587//48 586//48
f 3//4 4//4 7//4
f 4//4 6//4 7//4
f 103//11 105//11 128//11
f 105//11 45//11 128//11
f 10//3 9//3 129//3
f 9//49 476//49 129//49
f 9//50 18//50 476//50
f 18//51 130//51 476//51
f 131//52 132//52 133//52
f 132//53 134//53 133//53
f 45//4 44//4 117//4
f 44//4 106//4 117//4
f 44//54 402//54 106//54
f 402//55 105//55 106//55
f 402//56 47//56 105//56
f 47//57 45//57 105//57
f 135//58 136//58 527//58
f 136//59 528//59 527//59
f 259//60 137//60 78//60
f 137//61 79//61 78//61
f 138//62 139//62 140//62
f 139//62 141//62 140//62
f 10//3 142//3 130//3
f 142//3 143//3 130//3
f 144//1 124//1 145//1
f 124//1 125//1 145//1
f 146//63 147//63 148//63
f 147//64 132//64 148//64
f 149//65 80//65 150//65
f 80//66 81//66 150//66
f 151//67 152//67 375//67
f 153//24 154//24 373//24
f 154//68 155//68 373//68
f 373//69 155//69 156//69
f 155//70 157//70 156//70
f 154//71 158//71 155//71
f 158//72 159//72 155//72
f 582//73 581//73 161//73
f 581//74 162//74 161//74
f 131//75 133//75 163//75
f 133//76 164//76 163//76
f 480//77 481//77 165//77
f 481//78 75//78 165//78
f 166//79 167//79 168//79
f 167//80 169//80 168//80
f 170//24 171//24 172//24
f 171//24 173//24 172//24
f 523//81 522//81 174//81
f 522//82 175//82 174//82
f 149//83 150//83 259//83
f 150//84 137//84 259//84
f 530//85 176//85 360//85
f 176//86 177//86 360//86
f 178//87 179//87 180//87
f 179//88 181//88 180//88
f 182//89 183//89 184//89
f 183//90 185//90 184//90
f 505//91 186//91 571//91
f 186//92 187//92 571//92
f 188//93 189//93 87//93
f 189//94 85//94 87//94
f 11//3 12//3 17//3
f 12//3 190//3 17//3
f 55//95 35//95 419//95
f 35//96 37//96 419//96
f 472//97 160//97 477//97
f 160//98 475//98 477//98
f 191//99 192//99 193//99
f 192//99 194//99 193//99
f 507//100 13//100 195//100
f 13//101 364//101 195//101
f 195//102 364//102 126//102
f 364//102 88//102 126//102
f 126//103 88//103 86//103
f 126//104 196//104 195//104
f 196//105 197//105 195//105
f 197//106 196//106 198//106
f 196//4 24//4 198//4
f 198//107 24//107 199//107
f 24//108 339//108 199//108
f 339//109 24//109 338//109
f 24//4 23//4 338//4
f 338//110 23//110 200//110
f 23//111 201//111 200//111
f 201//4 23//4 202//4
f 23//112 126//112 202//112
f 202//113 126//113 86//113
f 202//114 86//114 375//114
f 86//114 13//114 375//114
f 476//115 203//115 129//115
f 203//11 204//11 129//11
f 10//11 130//11 12//11
f 130//11 190//11 12//11
f 464//116 205//116 520//116
f 205//117 206//117 520//117
f 207//118 134//118 165//118
f 134//119 208//119 165//119
f 134//120 132//120 208//120
f 132//121 147//121 208//121
f 208//4 147//4 76//4
f 209//122 575//122 355//122
f 575//123 210//123 355//123
f 145//3 211//3 144//3
f 211//3 212//3 144//3
f 196//11 213//11 24//11
f 213//11 26//11 24//11
f 214//3 93//3 172//3
f 93//3 170//3 172//3
f 17//24 190//24 18//24
f 190//24 130//24 18//24
f 76//124 77//124 208//124
f 77//125 467//125 208//125
f 208//126 467//126 165//126
f 467//127 480//127 165//127
f 373//128 215//128 153//128
f 215//129 216//129 153//129
f 217//130 218//130 219//130
f 218//130 220//130 219//130
f 37//4 221//4 222//4
f 221//4 223//4 222//4
f 72//4 204//4 34//4
f 204//4 33//4 34//4
f 118//24 104//24 128//24
f 104//24 103//24 128//24
f 100//2 52//2 67//2
f 52//131 472//131 67//131
f 221//3 37//3 224//3
f 37//3 38//3 224//3
f 225//132 584//132 328//132
f 584//133 329//133 328//133
f 595//134 594//134 321//134
f 594//135 318//135 321//135
f 172//1 173//1 214//1
f 173//1 97//1 214//1
f 226//136 227//136 228//136
f 227//136 229//136 228//136
f 28//137 49//137 27//137
f 230//138 231//138 232//138
f 231//138 233//138 232//138
f 234//139 235//139 236//139
f 235//140 237//140 236//140
f 28//2 30//2 48//2
f 13//11 62//11 238//11
f 239//141 240//141 241//141
f 240//141 242//141 241//141
f 238//142 151//142 375//142
f 243//143 579//143 244//143
f 579//144 245//144 244//144
f 52//4 100//4 50//4
f 100//4 99//4 50//4
f 246//145 247//145 248//145
f 247//146 249//146 248//146
f 375//147 28//147 200//147
f 28//148 338//148 200//148
f 250//149 251//149 349//149
f 251//150 252//150 349//150
f 31//2 33//2 203//2
f 33//2 204//2 203//2
f 253//151 254//151 255//151
f 254//152 493//152 255//152
f 256//153 424//153 211//153
f 424//154 123//154 211//154
f 123//155 424//155 125//155
f 424//156 257//156 125//156
f 125//157 257//157 145//157
f 257//158 258//158 145//158
f 145//4 258//4 211//4
f 117//2 118//2 45//2
f 118//2 128//2 45//2
f 260//159 261//159 262//159
f 261//160 577//160 262//160
f 263//161 264//161 265//161
f 264//162 266//162 265//162
f 198//163 199//163 507//163
f 199//163 28//163 507//163
f 154//164 153//164 267//164
f 153//165 268//165 267//165
f 126//166 213//166 196//166
f 269//167 336//167 590//167
f 336//168 591//168 590//168
f 54//1 55//1 224//1
f 55//1 221//1 224//1
f 29//169 74//169 507//169
f 203//170 473//170 73//170
f 473//171 72//171 73//171
f 473//172 101//172 72//172
f 101//11 204//11 72//11
f 102//24 53//24 98//24
f 53//24 51//24 98//24
f 7//1 6//1 142//1
f 6//1 143//1 142//1
f 212//11 211//11 122//11
f 211//11 123//11 122//11
f 270//173 558//173 271//173
f 558//174 272//174 271//174
f 171//2 95//2 173//2
f 95//2 97//2 173//2
f 263//175 46//175 264//175
f 46//175 47//175 264//175
f 273//176 310//176 601//176
f 310//177 274//177 601//177
f 275//178 276//178 148//178
f 276//179 146//179 148//179
f 277//180 278//180 279//180
f 278//180 280//180 279//180
f 419//181 37//181 281//181
f 37//4 222//4 281//4
f 203//24 73//24 31//24
f 73//24 32//24 31//24
f 152//10 282//10 375//10
f 283//182 284//182 285//182
f 284//182 286//182 285//182
f 95//11 171//11 93//11
f 171//11 170//11 93//11
f 98//1 99//1 102//1
f 99//1 100//1 102//1
f 101//4 67//4 137//4
f 67//4 79//4 137//4
f 79//4 67//4 81//4
f 67//4 142//4 81//4
f 81//4 142//4 150//4
f 142//4 129//4 150//4
f 150//4 129//4 137//4
f 129//4 101//4 137//4
f 290//183 287//183 147//183
f 147//184 287//184 207//184
f 207//185 287//185 121//185
f 207//186 121//186 288//186
f 288//187 121//187 289//187
f 287//188 290//188 291//188
f 290//189 292//189 291//189
f 292//190 290//190 293//190
f 229//191 292//191 293//191
f 228//192 294//192 297//192
f 293//193 471//193 229//193
f 229//194 471//194 228//194
f 228//195 471//195 294//195
f 295//196 228//196 297//196
f 295//197 297//197 296//197
f 288//198 296//198 297//198
f 288//199 289//199 296//199
f 182//200 134//200 183//200
f 183//201 134//201 207//201
f 183//202 207//202 288//202
f 134//203 182//203 307//203
f 183//204 288//204 298//204
f 288//205 299//205 298//205
f 299//206 288//206 297//206
f 84//207 299//207 297//207
f 303//208 301//208 300//208
f 300//209 301//209 294//209
f 294//210 301//210 84//210
f 294//211 84//211 297//211
f 302//212 301//212 303//212
f 305//213 302//213 303//213
f 302//214 305//214 304//214
f 304//215 305//215 306//215
f 306//216 307//216 304//216
f 134//217 307//217 306//217
f 132//218 131//218 316//218
f 133//219 134//219 308//219
f 308//220 134//220 306//220
f 308//221 306//221 305//221
f 305//222 309//222 308//222
f 309//223 305//223 303//223
f 273//224 309//224 303//224
f 312//225 310//225 60//225
f 60//226 310//226 300//226
f 300//227 310//227 273//227
f 300//228 273//228 303//228
f 311//229 310//229 312//229
f 314//230 311//230 312//230
f 311//231 314//231 313//231
f 313//232 314//232 315//232
f 315//233 316//233 313//233
f 132//234 316//234 315//234
f 318//235 285//235 321//235
f 321//236 285//236 286//236
f 326//237 286//237 479//237
f 479//238 286//238 278//238
f 479//239 278//239 317//239
f 317//240 278//240 277//240
f 317//241 277//241 324//241
f 324//242 277//242 285//242
f 324//243 285//243 318//243
f 319//244 320//244 321//244
f 319//245 321//245 158//245
f 158//246 321//246 286//246
f 158//247 286//247 159//247
f 86//248 85//248 320//248
f 320//249 319//249 86//249
f 323//250 87//250 88//250
f 323//251 322//251 87//251
f 322//252 323//252 324//252
f 324//253 318//253 322//253
f 331//254 332//254 161//254
f 161//255 202//255 331//255
f 202//256 161//256 201//256
f 201//257 161//257 162//257
f 201//258 162//258 325//258
f 327//259 325//259 162//259
f 325//260 327//260 326//260
f 326//261 327//261 328//261
f 326//262 328//262 286//262
f 286//263 328//263 329//263
f 286//264 329//264 159//264
f 159//265 329//265 330//265
f 159//266 330//266 331//266
f 331//267 330//267 332//267
f 269//268 57//268 336//268
f 336//269 57//269 56//269
f 269//270 326//270 57//270
f 57//271 326//271 191//271
f 191//272 326//272 479//272
f 191//273 479//273 192//273
f 192//274 479//274 333//274
f 192//275 333//275 56//275
f 334//276 335//276 336//276
f 334//277 336//277 157//277
f 157//278 336//278 56//278
f 157//279 56//279 156//279
f 200//280 71//280 335//280
f 335//281 334//281 200//281
f 325//282 70//282 201//282
f 201//283 70//283 200//283
f 200//284 70//284 71//284
f 325//285 337//285 70//285
f 337//286 325//286 326//286
f 326//287 269//287 337//287
f 344//288 345//288 261//288
f 261//289 338//289 344//289
f 339//290 341//290 340//290
f 338//291 261//291 339//291
f 339//292 261//292 260//292
f 339//293 260//293 341//293
f 340//294 244//294 333//294
f 340//295 341//295 244//295
f 333//296 244//296 56//296
f 56//297 244//297 245//297
f 56//298 245//298 156//298
f 156//299 245//299 342//299
f 342//300 245//300 343//300
f 342//301 343//301 344//301
f 344//302 343//302 345//302
f 350//303 64//303 127//303
f 127//304 64//304 63//304
f 350//305 333//305 64//305
f 64//306 333//306 141//306
f 141//307 333//307 140//307
f 140//308 333//308 468//308
f 140//309 468//309 63//309
f 347//310 346//310 127//310
f 347//311 127//311 215//311
f 215//312 127//312 63//312
f 215//313 63//313 216//313
f 199//314 252//314 346//314
f 346//315 347//315 199//315
f 348//316 349//316 339//316
f 339//317 349//317 199//317
f 199//318 349//318 252//318
f 348//319 339//319 340//319
f 350//320 340//320 333//320
f 340//321 350//321 348//321
f 216//322 351//322 352//322
f 352//323 351//323 353//323
f 352//324 353//324 21//324
f 21//325 198//325 352//325
f 197//326 356//326 354//326
f 198//327 21//327 197//327
f 197//328 21//328 22//328
f 197//329 22//329 356//329
f 468//330 355//330 63//330
f 63//331 355//331 210//331
f 63//332 210//332 216//332
f 216//333 210//333 351//333
f 354//334 355//334 468//334
f 354//335 356//335 355//335
f 147//336 146//336 290//336
f 290//337 146//337 357//337
f 148//338 132//338 358//338
f 358//339 132//339 315//339
f 358//340 315//340 314//340
f 314//341 359//341 358//341
f 359//342 314//342 312//342
f 177//343 359//343 312//343
f 293//344 360//344 471//344
f 471//345 360//345 60//345
f 60//346 360//346 177//346
f 60//347 177//347 312//347
f 361//348 360//348 293//348
f 361//349 293//349 362//349
f 290//350 362//350 293//350
f 290//351 357//351 362//351
f 364//352 363//352 174//352
f 364//353 174//353 88//353
f 88//354 174//354 175//354
f 88//355 175//355 323//355
f 366//356 363//356 364//356
f 366//357 365//357 363//357
f 365//358 366//358 367//358
f 267//359 268//359 242//359
f 136//360 135//360 241//360
f 241//361 242//361 136//361
f 136//362 242//362 268//362
f 135//363 468//363 241//363
f 241//364 468//364 112//364
f 112//365 468//365 111//365
f 111//366 468//366 317//366
f 111//367 317//367 242//367
f 242//368 317//368 324//368
f 366//369 267//369 367//369
f 367//370 267//370 242//370
f 367//371 242//371 108//371
f 108//372 242//372 324//372
f 324//373 368//373 108//373
f 368//374 324//374 323//374
f 368//375 323//375 175//375
f 468//376 135//376 354//376
f 354//377 135//377 369//377
f 354//378 369//378 197//378
f 369//379 167//379 197//379
f 197//380 167//380 195//380
f 195//381 167//381 166//381
f 195//382 166//382 371//382
f 195//383 371//383 370//383
f 370//384 371//384 268//384
f 268//385 371//385 136//385
f 372//386 344//386 28//386
f 28//387 344//387 338//387
f 342//388 344//388 372//388
f 156//389 342//389 373//389
f 373//390 342//390 372//390
f 157//391 155//391 334//391
f 374//392 334//392 155//392
f 334//393 374//393 200//393
f 200//394 374//394 375//394
f 376//395 377//395 26//395
f 26//395 377//395 25//395
f 379//396 378//396 381//396
f 380//397 384//397 379//397
f 379//396 384//396 378//396
f 378//396 385//396 381//396
f 381//396 385//396 382//396
f 383//396 388//396 384//396
f 383//397 384//397 380//397
f 389//396 388//396 383//396
f 385//396 386//396 382//396
f 382//396 386//396 387//396
f 394//396 392//396 389//396
f 389//396 392//396 388//396
f 387//397 386//397 390//397
f 387//397 390//397 391//397
f 391//398 390//398 393//398
f 394//396 397//396 392//396
f 393//396 390//396 395//396
f 396//396 398//396 397//396
f 396//396 397//396 394//396
f 248//396 398//396 396//396
f 393//396 395//396 272//396
f 222//397 248//397 281//397
f 281//396 248//396 249//396
f 281//396 249//396 376//396
f 376//396 249//396 232//396
f 376//396 232//396 377//396
f 377//396 232//396 233//396
f 377//396 233//396 258//396
f 258//396 233//396 271//396
f 258//396 271//396 256//396
f 256//397 271//397 272//397
f 222//397 398//397 248//397
f 272//397 395//397 256//397
f 224//24 38//24 54//24
f 54//24 38//24 36//24
f 122//24 124//24 212//24
f 212//24 124//24 144//24
f 55//181 419//181 223//181
f 55//4 223//4 221//4
f 47//399 402//399 403//399
f 402//400 404//400 403//400
f 403//401 404//401 405//401
f 403//402 405//402 406//402
f 405//403 401//403 406//403
f 407//404 401//404 405//404
f 401//405 407//405 400//405
f 400//406 407//406 408//406
f 400//407 408//407 399//407
f 399//408 408//408 39//408
f 409//409 399//409 74//409
f 74//410 399//410 39//410
f 29//411 409//411 74//411
f 409//412 29//412 410//412
f 410//413 29//413 27//413
f 410//414 27//414 411//414
f 411//415 27//415 49//415
f 411//416 49//416 412//416
f 412//417 49//417 413//417
f 412//418 413//418 414//418
f 412//419 414//419 415//419
f 415//420 414//420 416//420
f 415//421 416//421 417//421
f 417//422 416//422 418//422
f 417//423 418//423 419//423
f 419//424 418//424 223//424
f 422//425 429//425 423//425
f 257//426 424//426 425//426
f 424//427 426//427 425//427
f 425//428 426//428 428//428
f 425//429 428//429 427//429
f 427//430 428//430 423//430
f 423//431 429//431 427//431
f 429//432 422//432 421//432
f 421//433 422//433 420//433
f 420//434 422//434 152//434
f 430//435 420//435 151//435
f 151//436 420//436 152//436
f 238//437 430//437 151//437
f 430//438 238//438 431//438
f 431//439 238//439 62//439
f 431//440 62//440 432//440
f 432//441 62//441 61//441
f 432//442 61//442 433//442
f 433//443 61//443 434//443
f 433//444 434//444 435//444
f 433//445 435//445 436//445
f 436//446 435//446 437//446
f 436//447 437//447 439//447
f 436//448 439//448 438//448
f 438//449 439//449 440//449
f 438//450 440//450 441//450
f 441//451 440//451 94//451
f 40//452 205//452 442//452
f 464//452 44//452 205//452
f 205//452 44//452 46//452
f 205//452 46//452 442//452
f 446//452 443//452 444//452
f 444//452 443//452 445//452
f 445//453 443//453 447//453
f 446//453 449//453 443//453
f 445//453 447//453 448//453
f 450//452 449//452 446//452
f 453//452 454//452 450//452
f 450//452 454//452 449//452
f 448//452 447//452 451//452
f 448//452 451//452 452//452
f 453//452 459//452 454//452
f 451//452 455//452 452//452
f 452//452 455//452 456//452
f 455//453 457//453 456//453
f 458//452 459//452 453//452
f 458//452 463//452 459//452
f 462//454 463//454 458//454
f 456//453 457//453 460//453
f 460//452 457//452 461//452
f 235//454 463//454 462//454
f 460//452 461//452 464//452
f 40//452 442//452 41//452
f 41//452 442//452 465//452
f 41//452 465//452 234//452
f 234//452 465//452 466//452
f 234//452 466//452 235//452
f 235//452 466//452 96//452
f 235//452 96//452 463//452
f 464//452 461//452 44//452
f 126//455 465//455 213//455
f 213//456 465//456 442//456
f 467//457 77//457 468//457
f 468//458 77//458 317//458
f 259//459 78//459 469//459
f 469//460 78//460 470//460
f 469//461 470//461 60//461
f 60//462 470//462 471//462
f 53//463 473//463 472//463
f 53//464 472//464 52//464
f 100//2 67//2 101//2
f 472//465 473//465 160//465
f 160//466 473//466 474//466
f 160//467 474//467 114//467
f 114//468 474//468 116//468
f 19//469 476//469 475//469
f 477//470 476//470 143//470
f 476//471 477//471 475//471
f 19//472 475//472 115//472
f 113//473 115//473 475//473
f 130//474 143//474 476//474
f 142//3 10//3 129//3
f 294//475 478//475 300//475
f 478//476 294//476 80//476
f 80//477 149//477 478//477
f 76//4 147//4 75//4
f 75//4 147//4 207//4
f 75//4 207//4 165//4
f 333//478 479//478 480//478
f 479//479 481//479 480//479
f 211//480 258//480 256//480
f 441//481 214//481 466//481
f 466//4 214//4 97//4
f 466//482 97//482 96//482
f 94//483 93//483 441//483
f 441//484 93//484 214//484
f 480//485 467//485 468//485
f 480//486 468//486 333//486
f 478//487 149//487 469//487
f 149//488 259//488 469//488
f 203//489 476//489 473//489
f 129//11 204//11 101//11
f 115//490 116//490 19//490
f 19//491 116//491 474//491
f 19//492 474//492 476//492
f 476//493 474//493 473//493
f 442//494 376//494 213//494
f 213//494 376//494 26//494
f 483//175 409//175 482//175
f 482//175 409//175 410//175
f 484//175 409//175 483//175
f 484//495 399//495 409//495
f 482//175 410//175 485//175
f 485//175 410//175 486//175
f 488//495 399//495 484//495
f 410//175 411//175 486//175
f 488//175 400//175 399//175
f 486//175 411//175 412//175
f 486//175 412//175 487//175
f 491//175 401//175 488//175
f 488//175 401//175 400//175
f 487//495 412//495 415//495
f 487//495 415//495 489//495
f 491//175 406//175 401//175
f 489//495 415//495 490//495
f 490//175 415//175 417//175
f 492//175 403//175 491//175
f 491//175 403//175 406//175
f 264//175 403//175 492//175
f 490//175 417//175 493//175
f 46//175 263//175 442//175
f 442//175 263//175 90//175
f 442//175 90//175 376//175
f 376//175 90//175 89//175
f 376//175 89//175 281//175
f 281//175 89//175 255//175
f 281//175 255//175 419//175
f 419//175 255//175 493//175
f 264//175 47//175 403//175
f 493//495 417//495 419//495
f 5//496 472//496 143//496
f 5//1 143//1 6//1
f 7//1 142//1 67//1
f 479//497 317//497 481//497
f 481//498 317//498 77//498
f 470//499 80//499 294//499
f 294//500 471//500 470//500
f 80//501 470//501 78//501
f 477//502 143//502 472//502
f 114//503 113//503 475//503
f 114//504 475//504 160//504
f 126//505 25//505 465//505
f 465//506 25//506 377//506
f 179//507 178//507 257//507
f 494//507 495//507 430//507
f 494//508 430//508 431//508
f 494//507 431//507 496//507
f 498//507 430//507 495//507
f 498//508 420//508 430//508
f 497//508 420//508 498//508
f 431//507 432//507 496//507
f 496//507 432//507 499//507
f 497//507 421//507 420//507
f 499//507 432//507 433//507
f 502//507 421//507 497//507
f 499//507 433//507 500//507
f 501//507 429//507 502//507
f 502//507 429//507 421//507
f 500//508 433//508 436//508
f 500//508 436//508 503//508
f 501//507 427//507 429//507
f 504//507 427//507 501//507
f 503//507 436//507 438//507
f 504//507 425//507 427//507
f 179//507 425//507 504//507
f 503//509 438//509 505//509
f 505//507 441//507 186//507
f 186//507 441//507 466//507
f 186//507 466//507 220//507
f 220//507 466//507 465//507
f 220//507 465//507 219//507
f 219//507 465//507 377//507
f 219//507 377//507 178//507
f 178//507 377//507 258//507
f 178//507 258//507 257//507
f 179//510 257//510 425//510
f 505//508 438//508 441//508
f 440//511 439//511 463//511
f 449//512 454//512 61//512
f 61//513 454//513 434//513
f 434//514 454//514 459//514
f 434//515 459//515 435//515
f 435//516 459//516 437//516
f 437//517 459//517 463//517
f 437//518 463//518 439//518
f 440//519 463//519 96//519
f 440//520 96//520 94//520
f 14//521 449//521 61//521
f 14//522 15//522 443//522
f 14//523 443//523 449//523
f 16//524 447//524 15//524
f 15//525 447//525 443//525
f 39//526 447//526 16//526
f 408//527 451//527 39//527
f 39//528 451//528 447//528
f 451//529 408//529 407//529
f 451//530 407//530 455//530
f 455//531 407//531 457//531
f 457//532 407//532 405//532
f 457//533 405//533 404//533
f 457//534 404//534 461//534
f 461//535 404//535 402//535
f 461//536 402//536 44//536
f 418//537 416//537 398//537
f 384//538 388//538 49//538
f 49//539 388//539 413//539
f 413//540 388//540 414//540
f 388//541 392//541 414//541
f 414//542 392//542 416//542
f 416//543 392//543 397//543
f 416//544 397//544 398//544
f 418//545 398//545 223//545
f 223//546 398//546 222//546
f 48//547 384//547 49//547
f 48//548 30//548 378//548
f 378//549 384//549 48//549
f 282//550 378//550 30//550
f 282//551 385//551 378//551
f 422//552 386//552 152//552
f 152//553 386//553 385//553
f 152//554 385//554 282//554
f 386//555 422//555 423//555
f 386//556 423//556 390//556
f 390//557 423//557 428//557
f 390//558 428//558 395//558
f 395//559 428//559 426//559
f 395//560 426//560 256//560
f 256//561 426//561 424//561
f 506//562 370//562 153//562
f 153//563 370//563 268//563
f 506//564 195//564 370//564
f 507//565 195//565 506//565
f 364//566 508//566 366//566
f 508//567 364//567 13//567
f 366//568 508//568 154//568
f 154//569 267//569 366//569
f 13//570 86//570 508//570
f 508//571 86//571 319//571
f 508//572 319//572 154//572
f 154//573 319//573 158//573
f 155//574 159//574 374//574
f 374//575 159//575 331//575
f 374//576 331//576 375//576
f 375//577 331//577 202//577
f 28//578 199//578 372//578
f 372//579 199//579 347//579
f 372//580 347//580 373//580
f 373//581 347//581 215//581
f 153//582 216//582 506//582
f 506//583 216//583 352//583
f 506//584 352//584 507//584
f 507//585 352//585 198//585
f 13//586 238//586 375//586
f 28//587 29//587 507//587
f 507//588 39//588 16//588
f 375//589 30//589 28//589
f 237//590 235//590 510//590
f 462//591 510//591 235//591
f 458//592 509//592 510//592
f 458//593 510//593 462//593
f 453//594 509//594 458//594
f 453//595 511//595 509//595
f 511//596 453//596 512//596
f 512//597 453//597 450//597
f 512//598 450//598 446//598
f 446//599 513//599 512//599
f 444//600 513//600 446//600
f 513//601 444//601 514//601
f 445//602 515//602 514//602
f 445//603 514//603 444//603
f 515//604 445//604 516//604
f 516//605 445//605 448//605
f 448//606 517//606 516//606
f 517//607 448//607 452//607
f 456//608 518//608 517//608
f 456//609 517//609 452//609
f 518//610 456//610 460//610
f 460//611 519//611 518//611
f 464//612 519//612 460//612
f 464//613 520//613 519//613
f 236//614 43//614 234//614
f 234//614 43//614 41//614
f 42//615 206//615 40//615
f 40//616 206//616 205//616
f 514//452 515//452 42//452
f 43//452 513//452 514//452
f 43//452 514//452 42//452
f 43//452 512//452 513//452
f 42//452 515//452 516//452
f 516//452 517//452 42//452
f 511//452 512//452 43//452
f 42//452 517//452 518//452
f 43//452 509//452 511//452
f 518//453 519//453 206//453
f 509//452 43//452 236//452
f 42//452 518//452 206//452
f 236//453 510//453 509//453
f 206//452 519//452 520//452
f 236//452 237//452 510//452
f 107//617 108//617 521//617
f 521//618 108//618 368//618
f 521//619 368//619 522//619
f 522//620 368//620 175//620
f 523//621 174//621 363//621
f 523//622 363//622 524//622
f 363//623 365//623 524//623
f 524//624 365//624 525//624
f 525//625 365//625 367//625
f 524//626 522//626 523//626
f 522//627 524//627 521//627
f 521//628 524//628 525//628
f 521//629 525//629 107//629
f 526//630 169//630 369//630
f 169//631 167//631 369//631
f 526//632 369//632 135//632
f 527//633 526//633 135//633
f 136//634 371//634 528//634
f 528//635 371//635 529//635
f 168//636 529//636 371//636
f 166//637 168//637 371//637
f 529//638 526//638 528//638
f 528//639 526//639 527//639
f 168//640 169//640 529//640
f 529//641 169//641 526//641
f 240//642 109//642 242//642
f 242//643 109//643 111//643
f 110//644 239//644 112//644
f 112//644 239//644 241//644
f 239//645 110//645 240//645
f 240//645 110//645 109//645
f 530//646 360//646 361//646
f 530//647 361//647 531//647
f 361//648 362//648 531//648
f 531//649 362//649 532//649
f 532//650 362//650 357//650
f 532//651 357//651 276//651
f 146//652 276//652 357//652
f 275//653 148//653 533//653
f 533//654 148//654 358//654
f 533//655 358//655 534//655
f 359//656 534//656 358//656
f 534//657 359//657 176//657
f 176//658 359//658 177//658
f 276//659 275//659 533//659
f 533//660 532//660 276//660
f 532//661 533//661 534//661
f 534//662 531//662 532//662
f 534//663 176//663 531//663
f 531//664 176//664 530//664
f 264//665 537//665 266//665
f 537//666 264//666 492//666
f 491//667 538//667 492//667
f 492//668 538//668 537//668
f 538//669 491//669 539//669
f 539//670 491//670 488//670
f 488//671 536//671 539//671
f 536//672 488//672 484//672
f 484//673 540//673 536//673
f 483//674 540//674 484//674
f 483//675 541//675 540//675
f 482//676 541//676 483//676
f 541//677 482//677 535//677
f 485//678 535//678 482//678
f 486//679 542//679 485//679
f 485//680 542//680 535//680
f 542//681 486//681 543//681
f 487//682 543//682 486//682
f 487//683 545//683 543//683
f 489//684 545//684 487//684
f 489//685 544//685 545//685
f 544//686 489//686 490//686
f 490//687 546//687 544//687
f 546//688 490//688 493//688
f 493//689 254//689 546//689
f 265//690 92//690 263//690
f 263//691 92//691 90//691
f 91//692 253//692 89//692
f 89//692 253//692 255//692
f 91//175 541//175 535//175
f 92//175 540//175 541//175
f 92//495 541//495 91//495
f 536//175 540//175 92//175
f 91//495 535//495 542//495
f 542//175 543//175 91//175
f 92//175 539//175 536//175
f 91//175 543//175 545//175
f 92//175 538//175 539//175
f 545//175 544//175 91//175
f 253//175 544//175 546//175
f 538//175 92//175 265//175
f 91//175 544//175 253//175
f 265//495 537//495 538//495
f 253//175 546//175 254//175
f 265//495 266//495 537//495
f 246//693 248//693 547//693
f 396//694 547//694 248//694
f 394//695 547//695 396//695
f 547//696 394//696 548//696
f 389//697 548//697 394//697
f 389//698 549//698 548//698
f 549//699 389//699 550//699
f 550//700 389//700 383//700
f 550//701 383//701 380//701
f 380//702 551//702 550//702
f 379//703 551//703 380//703
f 551//704 379//704 552//704
f 381//705 553//705 552//705
f 381//706 552//706 379//706
f 553//707 381//707 554//707
f 554//708 381//708 382//708
f 382//709 555//709 554//709
f 555//710 382//710 387//710
f 391//711 556//711 387//711
f 387//712 556//712 555//712
f 556//713 391//713 557//713
f 557//714 391//714 393//714
f 557//715 393//715 558//715
f 272//716 558//716 393//716
f 247//717 230//717 249//717
f 249//717 230//717 232//717
f 231//718 270//718 233//718
f 233//718 270//718 271//718
f 552//396 553//396 231//396
f 230//396 551//396 552//396
f 230//397 552//397 231//397
f 230//396 550//396 551//396
f 231//397 553//397 554//397
f 554//396 555//396 231//396
f 549//396 550//396 230//396
f 555//396 556//396 231//396
f 230//396 548//396 549//396
f 547//397 230//397 247//397
f 230//397 547//397 548//397
f 556//396 557//396 231//396
f 231//397 557//397 270//397
f 270//396 557//396 558//396
f 247//396 246//396 547//396
f 504//719 181//719 179//719
f 181//720 504//720 559//720
f 559//721 504//721 501//721
f 501//722 560//722 559//722
f 560//723 501//723 502//723
f 560//724 502//724 561//724
f 561//725 502//725 497//725
f 497//726 562//726 561//726
f 562//727 497//727 498//727
f 498//728 563//728 562//728
f 563//729 498//729 495//729
f 495//730 564//730 563//730
f 494//731 564//731 495//731
f 494//732 565//732 564//732
f 565//733 494//733 496//733
f 496//734 566//734 565//734
f 566//735 496//735 499//735
f 499//736 567//736 566//736
f 567//737 499//737 500//737
f 567//738 500//738 568//738
f 500//739 569//739 568//739
f 503//740 569//740 500//740
f 569//741 503//741 570//741
f 570//742 503//742 505//742
f 505//743 571//743 570//743
f 180//744 217//744 178//744
f 178//744 217//744 219//744
f 218//745 187//745 220//745
f 220//745 187//745 186//745
f 564//508 565//508 218//508
f 217//508 563//508 564//508
f 217//508 564//508 218//508
f 218//508 565//508 566//508
f 562//507 563//507 217//507
f 218//507 566//507 567//507
f 217//507 561//507 562//507
f 218//507 567//507 568//507
f 217//507 560//507 561//507
f 568//507 569//507 218//507
f 569//507 570//507 187//507
f 217//507 559//507 560//507
f 559//507 217//507 180//507
f 218//508 569//508 187//508
f 187//507 570//507 571//507
f 180//507 181//507 559//507
f 65//746 138//746 63//746
f 63//746 138//746 140//746
f 139//747 66//747 141//747
f 141//747 66//747 64//747
f 66//748 139//748 65//748
f 65//748 139//748 138//748
f 58//749 194//749 56//749
f 56//750 194//750 192//750
f 193//751 59//751 191//751
f 191//751 59//751 57//751
f 59//752 193//752 58//752
f 58//752 193//752 194//752
f 284//753 280//753 286//753
f 286//753 280//753 278//753
f 279//754 283//754 277//754
f 277//754 283//754 285//754
f 283//755 279//755 284//755
f 284//755 279//755 280//755
f 209//756 355//756 572//756
f 572//757 355//757 356//757
f 572//758 356//758 20//758
f 20//759 356//759 22//759
f 573//760 21//760 353//760
f 573//761 353//761 574//761
f 353//762 351//762 574//762
f 574//763 351//763 575//763
f 575//764 351//764 210//764
f 574//765 20//765 573//765
f 20//766 574//766 572//766
f 572//767 574//767 575//767
f 572//768 575//768 209//768
f 243//769 244//769 576//769
f 576//770 244//770 341//770
f 576//771 341//771 262//771
f 262//772 341//772 260//772
f 577//773 261//773 345//773
f 577//774 345//774 578//774
f 345//775 343//775 578//775
f 578//776 343//776 579//776
f 579//777 343//777 245//777
f 578//778 262//778 577//778
f 262//779 578//779 576//779
f 576//780 578//780 579//780
f 576//781 579//781 243//781
f 225//782 328//782 580//782
f 580//783 328//783 327//783
f 580//784 327//784 581//784
f 581//785 327//785 162//785
f 582//786 161//786 332//786
f 582//787 332//787 583//787
f 332//788 330//788 583//788
f 583//789 330//789 584//789
f 584//790 330//790 329//790
f 583//791 581//791 582//791
f 581//792 583//792 580//792
f 580//793 583//793 584//793
f 580//794 584//794 225//794
f 585//795 250//795 348//795
f 250//796 349//796 348//796
f 585//797 348//797 350//797
f 586//798 585//798 350//798
f 127//799 346//799 587//799
f 587//800 346//800 588//800
f 251//801 588//801 346//801
f 252//802 251//802 346//802
f 588//803 585//803 587//803
f 587//804 585//804 586//804
f 251//805 250//805 588//805
f 588//806 250//806 585//806
f 589//807 68//807 337//807
f 68//808 70//808 337//808
f 590//809 589//809 337//809
f 337//810 269//810 590//810
f 336//811 335//811 591//811
f 591//812 335//812 592//812
f 69//813 592//813 335//813
f 71//814 69//814 335//814
f 592//815 589//815 591//815
f 591//816 589//816 590//816
f 69//817 68//817 592//817
f 592//818 68//818 589//818
f 593//819 188//819 322//819
f 188//820 87//820 322//820
f 594//821 593//821 322//821
f 322//822 318//822 594//822
f 321//823 320//823 595//823
f 595//824 320//824 596//824
f 189//825 596//825 320//825
f 85//826 189//826 320//826
f 596//827 593//827 595//827
f 595//828 593//828 594//828
f 189//829 188//829 596//829
f 596//830 188//830 593//830
f 274//831 310//831 311//831
f 274//832 311//832 597//832
f 311//833 313//833 597//833
f 597//834 313//834 598//834
f 598//835 313//835 316//835
f 598//836 316//836 163//836
f 131//837 163//837 316//837
f 164//838 133//838 599//838
f 599//839 133//839 308//839
f 599//840 308//840 600//840
f 309//841 600//841 308//841
f 600//842 309//842 601//842
f 601//843 309//843 273//843
f 163//844 164//844 599//844
f 599//845 598//845 163//845
f 598//846 599//846 600//846
f 600//847 597//847 598//847
f 600//848 601//848 597//848
f 597//849 601//849 274//849
f 82//850 301//850 302//850
f 82//851 302//851 602//851
f 302//852 304//852 602//852
f 602//853 304//853 603//853
f 603//854 304//854 307//854
f 603//855 307//855 184//855
f 182//856 184//856 307//856
f 185//857 183//857 604//857
f 604//858 183//858 298//858
f 604//859 298//859 605//859
f 299//860 605//860 298//860
f 605//861 299//861 83//861
f 83//862 299//862 84//862
f 184//863 185//863 604//863
f 604//864 603//864 184//864
f 603//865 604//865 605//865
f 605//866 602//866 603//866
f 602//867 605//867 82//867
f 605//868 83//868 82//868
f 226//869 228//869 295//869
f 226//870 295//870 606//870
f 295//871 296//871 606//871
f 606//872 296//872 607//872
f 607//873 296//873 289//873
f 607//874 289//874 120//874
f 121//875 120//875 289//875
f 119//876 287//876 608//876
f 608//877 287//877 291//877
f 608//878 291//878 609//878
f 292//879 609//879 291//879
f 609//880 292//880 227//880
f 227//881 292//881 229//881
f 120//882 119//882 608//882
f 608//883 607//883 120//883
f 607//884 608//884 609//884
f 609//885 606//885 607//885
f 609//886 227//886 606//886
f 606//887 227//887 226//887
